<svg width="426" height="136" viewBox="0 0 426 136" fill="none" xmlns="http://www.w3.org/2000/svg">
<g filter="url(#filter0_d_2_2)">
<path d="M47.679 20.3182H36.3153C36.1638 19.1515 35.8532 18.0985 35.3835 17.1591C34.9138 16.2197 34.2926 15.4167 33.5199 14.75C32.7472 14.0833 31.8305 13.5758 30.7699 13.2273C29.7244 12.8636 28.5653 12.6818 27.2926 12.6818C25.035 12.6818 23.0881 13.2348 21.4517 14.3409C19.8305 15.447 18.5805 17.0455 17.7017 19.1364C16.8381 21.2273 16.4062 23.7576 16.4062 26.7273C16.4062 29.8182 16.8456 32.4091 17.7244 34.5C18.6184 36.5758 19.8684 38.1439 21.4744 39.2045C23.0956 40.25 25.0123 40.7727 27.2244 40.7727C28.4669 40.7727 29.5956 40.6136 30.6108 40.2955C31.6411 39.9773 32.5426 39.5152 33.3153 38.9091C34.1032 38.2879 34.7472 37.5379 35.2472 36.6591C35.7623 35.7652 36.1184 34.7576 36.3153 33.6364L47.679 33.7045C47.482 35.7652 46.8835 37.7955 45.8835 39.7955C44.8987 41.7955 43.5426 43.6212 41.8153 45.2727C40.0881 46.9091 37.982 48.2121 35.4972 49.1818C33.0275 50.1515 30.1941 50.6364 26.9972 50.6364C22.785 50.6364 19.0123 49.7121 15.679 47.8636C12.3608 46 9.73958 43.2879 7.81534 39.7273C5.8911 36.1667 4.92898 31.8333 4.92898 26.7273C4.92898 21.6061 5.90625 17.2652 7.8608 13.7045C9.81534 10.1439 12.4593 7.43939 15.7926 5.59091C19.1259 3.74242 22.8608 2.81818 26.9972 2.81818C29.8153 2.81818 32.4214 3.21212 34.8153 4C37.2093 4.77273 39.3153 5.90909 41.1335 7.40909C42.9517 8.89394 44.429 10.7197 45.5653 12.8864C46.7017 15.053 47.4062 17.5303 47.679 20.3182ZM70.4119 50.6591C66.7453 50.6591 63.5938 49.9091 60.9574 48.4091C58.3362 46.8939 56.3134 44.7879 54.8892 42.0909C53.4801 39.3788 52.7756 36.2348 52.7756 32.6591C52.7756 29.0682 53.4801 25.9242 54.8892 23.2273C56.3134 20.5152 58.3362 18.4091 60.9574 16.9091C63.5938 15.3939 66.7453 14.6364 70.4119 14.6364C74.0786 14.6364 77.2225 15.3939 79.8438 16.9091C82.4801 18.4091 84.5028 20.5152 85.9119 23.2273C87.3362 25.9242 88.0483 29.0682 88.0483 32.6591C88.0483 36.2348 87.3362 39.3788 85.9119 42.0909C84.5028 44.7879 82.4801 46.8939 79.8438 48.4091C77.2225 49.9091 74.0786 50.6591 70.4119 50.6591ZM70.4801 42.2727C71.8134 42.2727 72.9422 41.8636 73.8665 41.0455C74.7907 40.2273 75.4953 39.0909 75.9801 37.6364C76.4801 36.1818 76.7301 34.5 76.7301 32.5909C76.7301 30.6515 76.4801 28.9545 75.9801 27.5C75.4953 26.0455 74.7907 24.9091 73.8665 24.0909C72.9422 23.2727 71.8134 22.8636 70.4801 22.8636C69.1013 22.8636 67.9347 23.2727 66.9801 24.0909C66.0407 24.9091 65.321 26.0455 64.821 27.5C64.3362 28.9545 64.0938 30.6515 64.0938 32.5909C64.0938 34.5 64.3362 36.1818 64.821 37.6364C65.321 39.0909 66.0407 40.2273 66.9801 41.0455C67.9347 41.8636 69.1013 42.2727 70.4801 42.2727ZM93.7415 50V15.0909H104.31V21.5H104.696C105.423 19.3788 106.651 17.7045 108.378 16.4773C110.105 15.25 112.166 14.6364 114.56 14.6364C116.984 14.6364 119.06 15.2576 120.787 16.5C122.514 17.7424 123.613 19.4091 124.082 21.5H124.446C125.098 19.4242 126.37 17.7652 128.264 16.5227C130.158 15.2652 132.393 14.6364 134.969 14.6364C138.272 14.6364 140.954 15.697 143.014 17.8182C145.075 19.9242 146.105 22.8182 146.105 26.5V50H134.991V29.0455C134.991 27.303 134.545 25.9773 133.651 25.0682C132.757 24.1439 131.598 23.6818 130.173 23.6818C128.643 23.6818 127.438 24.1818 126.56 25.1818C125.696 26.1667 125.264 27.4924 125.264 29.1591V50H114.582V28.9318C114.582 27.3106 114.143 26.0303 113.264 25.0909C112.385 24.1515 111.226 23.6818 109.787 23.6818C108.817 23.6818 107.961 23.9167 107.219 24.3864C106.476 24.8409 105.893 25.4924 105.469 26.3409C105.06 27.1894 104.855 28.1894 104.855 29.3409V50H93.7415ZM152.991 50V15.0909H164.105V50H152.991ZM158.56 11.0227C156.999 11.0227 155.658 10.5076 154.537 9.47727C153.416 8.43182 152.855 7.17424 152.855 5.70454C152.855 4.25 153.416 3.00757 154.537 1.97727C155.658 0.931816 156.999 0.409088 158.56 0.409088C160.135 0.409088 161.476 0.931816 162.582 1.97727C163.704 3.00757 164.264 4.25 164.264 5.70454C164.264 7.17424 163.704 8.43182 162.582 9.47727C161.476 10.5076 160.135 11.0227 158.56 11.0227ZM182.293 30.0909V50H171.179V15.0909H181.747V21.5H182.134C182.906 19.3636 184.224 17.6894 186.088 16.4773C187.952 15.25 190.171 14.6364 192.747 14.6364C195.202 14.6364 197.33 15.1894 199.134 16.2955C200.952 17.3864 202.361 18.9167 203.361 20.8864C204.376 22.8409 204.876 25.1288 204.861 27.75V50H193.747V29.9318C193.762 27.9924 193.27 26.4773 192.27 25.3864C191.285 24.2955 189.914 23.75 188.156 23.75C186.99 23.75 185.959 24.0076 185.065 24.5227C184.187 25.0227 183.505 25.7424 183.02 26.6818C182.55 27.6212 182.308 28.7576 182.293 30.0909ZM228.014 63.8182C224.696 63.8182 221.855 63.3561 219.491 62.4318C217.128 61.5076 215.272 60.2424 213.923 58.6364C212.575 57.0303 211.764 55.2121 211.491 53.1818L222.014 52.5909C222.211 53.303 222.575 53.9242 223.105 54.4545C223.651 54.9848 224.355 55.3939 225.219 55.6818C226.098 55.9697 227.128 56.1136 228.31 56.1136C230.173 56.1136 231.711 55.6591 232.923 54.75C234.151 53.8561 234.764 52.2879 234.764 50.0455V43.9091H234.378C233.938 44.9848 233.272 45.947 232.378 46.7955C231.484 47.6439 230.37 48.3106 229.037 48.7955C227.719 49.2803 226.204 49.5227 224.491 49.5227C221.946 49.5227 219.613 48.9318 217.491 47.75C215.385 46.553 213.696 44.7045 212.423 42.2045C211.166 39.6894 210.537 36.4545 210.537 32.5C210.537 28.4242 211.188 25.0682 212.491 22.4318C213.795 19.7803 215.499 17.8182 217.605 16.5455C219.726 15.2727 222.007 14.6364 224.446 14.6364C226.279 14.6364 227.848 14.9545 229.151 15.5909C230.469 16.2121 231.552 17.0152 232.401 18C233.249 18.9848 233.893 20.0076 234.332 21.0682H234.651V15.0909H245.719V50.1364C245.719 53.0909 244.976 55.5833 243.491 57.6136C242.007 59.6439 239.931 61.1818 237.264 62.2273C234.598 63.2879 231.514 63.8182 228.014 63.8182ZM228.355 41.4318C229.704 41.4318 230.855 41.0758 231.81 40.3636C232.764 39.6515 233.499 38.6288 234.014 37.2955C234.529 35.9621 234.787 34.3636 234.787 32.5C234.787 30.6061 234.529 28.9773 234.014 27.6136C233.514 26.2348 232.779 25.1742 231.81 24.4318C230.855 23.6894 229.704 23.3182 228.355 23.3182C226.976 23.3182 225.81 23.697 224.855 24.4545C223.901 25.2121 223.173 26.2803 222.673 27.6591C222.188 29.0227 221.946 30.6364 221.946 32.5C221.946 34.3636 222.196 35.9621 222.696 37.2955C223.196 38.6288 223.916 39.6515 224.855 40.3636C225.81 41.0758 226.976 41.4318 228.355 41.4318ZM291.713 17.4091C291.562 15.7424 290.887 14.447 289.69 13.5227C288.509 12.5833 286.819 12.1136 284.622 12.1136C283.168 12.1136 281.955 12.303 280.986 12.6818C280.016 13.0606 279.289 13.5833 278.804 14.25C278.319 14.9015 278.069 15.6515 278.054 16.5C278.024 17.197 278.16 17.8106 278.463 18.3409C278.781 18.8712 279.236 19.3409 279.827 19.75C280.433 20.1439 281.16 20.4924 282.009 20.7955C282.857 21.0985 283.812 21.3636 284.872 21.5909L288.872 22.5C291.175 23 293.205 23.6667 294.963 24.5C296.736 25.3333 298.221 26.3258 299.418 27.4773C300.63 28.6288 301.546 29.9545 302.168 31.4545C302.789 32.9545 303.107 34.6364 303.122 36.5C303.107 39.4394 302.365 41.9621 300.895 44.0682C299.425 46.1742 297.312 47.7879 294.554 48.9091C291.812 50.0303 288.501 50.5909 284.622 50.5909C280.728 50.5909 277.334 50.0076 274.44 48.8409C271.546 47.6742 269.296 45.9015 267.69 43.5227C266.084 41.1439 265.259 38.1364 265.213 34.5H275.986C276.077 36 276.478 37.25 277.19 38.25C277.902 39.25 278.88 40.0076 280.122 40.5227C281.38 41.0379 282.834 41.2955 284.486 41.2955C286.001 41.2955 287.289 41.0909 288.349 40.6818C289.425 40.2727 290.251 39.7045 290.827 38.9773C291.402 38.25 291.698 37.4167 291.713 36.4773C291.698 35.5985 291.425 34.8485 290.895 34.2273C290.365 33.5909 289.546 33.0455 288.44 32.5909C287.349 32.1212 285.955 31.6894 284.259 31.2955L279.395 30.1591C275.365 29.2348 272.19 27.7424 269.872 25.6818C267.554 23.6061 266.402 20.803 266.418 17.2727C266.402 14.3939 267.175 11.8712 268.736 9.70454C270.296 7.53788 272.455 5.84848 275.213 4.63636C277.971 3.42424 281.115 2.81818 284.645 2.81818C288.251 2.81818 291.38 3.43182 294.031 4.65909C296.698 5.87121 298.766 7.57576 300.236 9.77273C301.705 11.9697 302.455 14.5151 302.486 17.4091H291.713ZM325.099 50.6591C321.433 50.6591 318.281 49.9091 315.645 48.4091C313.024 46.8939 311.001 44.7879 309.577 42.0909C308.168 39.3788 307.463 36.2348 307.463 32.6591C307.463 29.0682 308.168 25.9242 309.577 23.2273C311.001 20.5152 313.024 18.4091 315.645 16.9091C318.281 15.3939 321.433 14.6364 325.099 14.6364C328.766 14.6364 331.91 15.3939 334.531 16.9091C337.168 18.4091 339.19 20.5152 340.599 23.2273C342.024 25.9242 342.736 29.0682 342.736 32.6591C342.736 36.2348 342.024 39.3788 340.599 42.0909C339.19 44.7879 337.168 46.8939 334.531 48.4091C331.91 49.9091 328.766 50.6591 325.099 50.6591ZM325.168 42.2727C326.501 42.2727 327.63 41.8636 328.554 41.0455C329.478 40.2273 330.183 39.0909 330.668 37.6364C331.168 36.1818 331.418 34.5 331.418 32.5909C331.418 30.6515 331.168 28.9545 330.668 27.5C330.183 26.0455 329.478 24.9091 328.554 24.0909C327.63 23.2727 326.501 22.8636 325.168 22.8636C323.789 22.8636 322.622 23.2727 321.668 24.0909C320.728 24.9091 320.009 26.0455 319.509 27.5C319.024 28.9545 318.781 30.6515 318.781 32.5909C318.781 34.5 319.024 36.1818 319.509 37.6364C320.009 39.0909 320.728 40.2273 321.668 41.0455C322.622 41.8636 323.789 42.2727 325.168 42.2727ZM364.724 50.6591C361.058 50.6591 357.906 49.9091 355.27 48.4091C352.649 46.8939 350.626 44.7879 349.202 42.0909C347.793 39.3788 347.088 36.2348 347.088 32.6591C347.088 29.0682 347.793 25.9242 349.202 23.2273C350.626 20.5152 352.649 18.4091 355.27 16.9091C357.906 15.3939 361.058 14.6364 364.724 14.6364C368.391 14.6364 371.535 15.3939 374.156 16.9091C376.793 18.4091 378.815 20.5152 380.224 23.2273C381.649 25.9242 382.361 29.0682 382.361 32.6591C382.361 36.2348 381.649 39.3788 380.224 42.0909C378.815 44.7879 376.793 46.8939 374.156 48.4091C371.535 49.9091 368.391 50.6591 364.724 50.6591ZM364.793 42.2727C366.126 42.2727 367.255 41.8636 368.179 41.0455C369.103 40.2273 369.808 39.0909 370.293 37.6364C370.793 36.1818 371.043 34.5 371.043 32.5909C371.043 30.6515 370.793 28.9545 370.293 27.5C369.808 26.0455 369.103 24.9091 368.179 24.0909C367.255 23.2727 366.126 22.8636 364.793 22.8636C363.414 22.8636 362.247 23.2727 361.293 24.0909C360.353 24.9091 359.634 26.0455 359.134 27.5C358.649 28.9545 358.406 30.6515 358.406 32.5909C358.406 34.5 358.649 36.1818 359.134 37.6364C359.634 39.0909 360.353 40.2273 361.293 41.0455C362.247 41.8636 363.414 42.2727 364.793 42.2727ZM399.168 30.0909V50H388.054V15.0909H398.622V21.5H399.009C399.781 19.3636 401.099 17.6894 402.963 16.4773C404.827 15.25 407.046 14.6364 409.622 14.6364C412.077 14.6364 414.205 15.1894 416.009 16.2955C417.827 17.3864 419.236 18.9167 420.236 20.8864C421.251 22.8409 421.751 25.1288 421.736 27.75V50H410.622V29.9318C410.637 27.9924 410.145 26.4773 409.145 25.3864C408.16 24.2955 406.789 23.75 405.031 23.75C403.865 23.75 402.834 24.0076 401.94 24.5227C401.062 25.0227 400.38 25.7424 399.895 26.6818C399.425 27.6212 399.183 28.7576 399.168 30.0909ZM131.523 127V80.4545H142.636V98.0682H142.864C143.318 97.0076 143.962 95.9848 144.795 95C145.644 94.0152 146.72 93.2121 148.023 92.5909C149.341 91.9545 150.917 91.6364 152.75 91.6364C155.174 91.6364 157.439 92.2727 159.545 93.5455C161.667 94.8182 163.379 96.7803 164.682 99.4318C165.985 102.083 166.636 105.462 166.636 109.568C166.636 113.523 166.008 116.833 164.75 119.5C163.508 122.167 161.826 124.167 159.705 125.5C157.598 126.833 155.258 127.5 152.682 127.5C150.924 127.5 149.402 127.212 148.114 126.636C146.826 126.061 145.742 125.303 144.864 124.364C144 123.424 143.333 122.417 142.864 121.341H142.523V127H131.523ZM142.409 109.545C142.409 111.424 142.659 113.061 143.159 114.455C143.674 115.848 144.409 116.932 145.364 117.705C146.333 118.462 147.492 118.841 148.841 118.841C150.205 118.841 151.364 118.462 152.318 117.705C153.273 116.932 153.992 115.848 154.477 114.455C154.977 113.061 155.227 111.424 155.227 109.545C155.227 107.667 154.977 106.038 154.477 104.659C153.992 103.28 153.273 102.212 152.318 101.455C151.379 100.697 150.22 100.318 148.841 100.318C147.477 100.318 146.318 100.689 145.364 101.432C144.409 102.174 143.674 103.235 143.159 104.614C142.659 105.992 142.409 107.636 142.409 109.545ZM172.46 127V92.0909H183.256V98.4545H183.619C184.256 96.1515 185.294 94.4394 186.733 93.3182C188.172 92.1818 189.847 91.6136 191.756 91.6136C192.271 91.6136 192.801 91.6515 193.347 91.7273C193.892 91.7879 194.4 91.8864 194.869 92.0227V101.682C194.339 101.5 193.642 101.356 192.778 101.25C191.93 101.144 191.172 101.091 190.506 101.091C189.188 101.091 187.998 101.386 186.938 101.977C185.892 102.553 185.066 103.364 184.46 104.409C183.869 105.439 183.574 106.652 183.574 108.045V127H172.46ZM221.92 111.932V92.0909H233.011V127H222.42V120.5H222.057C221.284 122.636 219.966 124.333 218.102 125.591C216.254 126.833 214.019 127.455 211.398 127.455C209.019 127.455 206.928 126.909 205.125 125.818C203.322 124.727 201.92 123.205 200.92 121.25C199.92 119.28 199.413 116.977 199.398 114.341V92.0909H210.511V112.159C210.527 114.053 211.027 115.545 212.011 116.636C212.996 117.727 214.337 118.273 216.034 118.273C217.14 118.273 218.133 118.03 219.011 117.545C219.905 117.045 220.61 116.326 221.125 115.386C221.655 114.432 221.92 113.28 221.92 111.932ZM251.199 107.091V127H240.085V80.4545H250.835V98.5H251.222C252.009 96.3485 253.297 94.6667 255.085 93.4545C256.888 92.2424 259.093 91.6364 261.699 91.6364C264.153 91.6364 266.29 92.1818 268.108 93.2727C269.926 94.3485 271.335 95.8712 272.335 97.8409C273.35 99.8106 273.85 102.114 273.835 104.75V127H262.722V106.932C262.737 104.992 262.252 103.477 261.267 102.386C260.282 101.295 258.896 100.75 257.108 100.75C255.941 100.75 254.911 101.008 254.017 101.523C253.138 102.023 252.449 102.742 251.949 103.682C251.464 104.621 251.214 105.758 251.199 107.091ZM293.841 80.4545L292.795 112.75H283.455L282.409 80.4545H293.841ZM288.114 127.659C286.492 127.659 285.098 127.083 283.932 125.932C282.78 124.78 282.205 123.386 282.205 121.75C282.205 120.144 282.78 118.773 283.932 117.636C285.098 116.485 286.492 115.909 288.114 115.909C289.674 115.909 291.045 116.485 292.227 117.636C293.424 118.773 294.023 120.144 294.023 121.75C294.023 122.841 293.742 123.833 293.182 124.727C292.636 125.621 291.917 126.333 291.023 126.864C290.144 127.394 289.174 127.659 288.114 127.659Z" fill="#1E40AF"/>
</g>
<defs>
<filter id="filter0_d_2_2" x="0.928978" y="0.409088" width="424.83" height="135.25" filterUnits="userSpaceOnUse" color-interpolation-filters="sRGB">
<feFlood flood-opacity="0" result="BackgroundImageFix"/>
<feColorMatrix in="SourceAlpha" type="matrix" values="0 0 0 0 0 0 0 0 0 0 0 0 0 0 0 0 0 0 127 0" result="hardAlpha"/>
<feOffset dy="4"/>
<feGaussianBlur stdDeviation="2"/>
<feComposite in2="hardAlpha" operator="out"/>
<feColorMatrix type="matrix" values="0 0 0 0 0 0 0 0 0 0 0 0 0 0 0 0 0 0 0.25 0"/>
<feBlend mode="normal" in2="BackgroundImageFix" result="effect1_dropShadow_2_2"/>
<feBlend mode="normal" in="SourceGraphic" in2="effect1_dropShadow_2_2" result="shape"/>
</filter>
</defs>
</svg>
