<svg width="387" height="58" viewBox="0 0 387 58" fill="none" xmlns="http://www.w3.org/2000/svg">
<path d="M5.06825 26.3851C4.08602 26.3969 2.94267 26.1675 2.11346 25.2461L5.06825 26.3851ZM5.06825 26.3851V43.5043C5.06825 45.4985 6.78703 47 8.7498 47H21.5853C22.6339 47 23.6331 46.1996 23.6331 45.0379V30.1448H30.369V45.0379C30.369 46.1992 31.3674 47 32.4162 47H45.252C47.2148 47 48.9336 45.4985 48.9336 43.5043V26.383C49.9148 26.3944 51.0577 26.1671 51.8877 25.2466L51.8886 25.2456C53.5714 23.3742 53.3085 20.5535 51.3373 18.991C51.3372 18.9909 51.337 18.9907 51.3368 18.9906L30.0308 2.0383L30.0309 2.03828L30.0246 2.03341C29.9035 1.93862 29.7719 1.86036 29.6351 1.79786C27.9212 0.661818 25.6053 0.736338 23.9691 2.03832L2.66162 18.9896C0.692211 20.5553 0.427452 23.3733 2.11319 25.2458L5.06825 26.3851ZM44.8367 43.0741H34.4618V28.181C34.4618 27.0192 33.4631 26.2189 32.4143 26.2189H21.5834C20.5347 26.2189 19.536 27.0192 19.536 28.181V43.0741H9.16103V23.9783C9.16103 23.2773 8.77663 22.6583 8.19738 22.3132L8.19558 22.3121C7.62677 21.9748 6.9284 21.9303 6.3263 22.1656L6.32627 22.1655L6.31422 22.1704C6.00513 22.2959 5.59124 22.4011 5.24208 22.445C5.18843 22.4518 5.13994 22.4566 5.09671 22.4599C5.06264 22.3004 5.12043 22.1304 5.27474 22.0076C5.27477 22.0076 5.2748 22.0075 5.27483 22.0075L26.5811 5.05537C26.5812 5.05527 26.5814 5.05518 26.5815 5.05508C26.7989 4.88302 27.1257 4.88216 27.3442 5.05248C27.4542 5.14149 27.5715 5.21591 27.6911 5.27659L48.7213 22.0115L48.7237 22.0134C48.8767 22.1344 48.9349 22.303 48.901 22.462C48.8658 22.4595 48.8268 22.4559 48.7842 22.4511C48.4541 22.4136 48.0399 22.3142 47.6789 22.1697C47.0664 21.9228 46.359 21.9768 45.7952 22.3184C45.2253 22.6614 44.8367 23.2769 44.8367 23.9786V43.0741ZM4.86764 22.4615C4.86767 22.4615 4.86828 22.4615 4.86943 22.4618L4.86764 22.4615Z" fill="#1E40AF" stroke="#1E40AF" stroke-width="2"/>
<g style="mix-blend-mode:darken">
<path d="M79.5254 41.4883C80.8861 41.4883 82.0767 41.3451 83.0972 41.0586C84.1356 40.7721 85.0039 40.3066 85.7021 39.6621C86.4004 39.0176 86.9375 38.1761 87.3135 37.1377C87.7074 36.0993 87.9401 34.8281 88.0117 33.3242L93.4902 34.5059L93.0874 42.6699C90.9748 44.0843 88.7279 45.1138 86.3467 45.7583C83.9655 46.3849 81.3874 46.6982 78.6123 46.6982C75.3538 46.6982 72.5519 46.2238 70.2065 45.2749C67.8612 44.326 65.9365 43.028 64.4326 41.3809C62.9287 39.7337 61.8187 37.8001 61.1025 35.5801C60.3864 33.36 60.0283 30.9788 60.0283 28.4365C60.0283 25.7689 60.4312 23.3161 61.2368 21.0781C62.0604 18.8402 63.2331 16.9155 64.7549 15.3042C66.2767 13.6929 68.1297 12.4396 70.314 11.5444C72.4982 10.6493 74.9689 10.2017 77.7261 10.2017C78.5496 10.2017 79.4001 10.2733 80.2773 10.4165C81.1546 10.5597 81.9961 10.7656 82.8018 11.0342C83.6074 11.3027 84.3504 11.625 85.0308 12.001C85.729 12.377 86.3198 12.7977 86.8032 13.2632L86.9375 10.9536H92.8994V21.9644L87.394 21.9375C87.2508 19.8965 86.5168 18.3031 85.1919 17.1572C83.867 15.9935 81.9513 15.4116 79.4448 15.4116C77.923 15.4116 76.5623 15.6891 75.3628 16.2441C74.1632 16.7992 73.1427 17.6227 72.3013 18.7148C71.4777 19.7891 70.8421 21.1408 70.3945 22.77C69.9469 24.3813 69.7231 26.2433 69.7231 28.356C69.7231 30.4328 69.9469 32.2858 70.3945 33.915C70.8421 35.5443 71.4867 36.9229 72.3281 38.0508C73.1696 39.1608 74.1901 40.0112 75.3896 40.6021C76.6071 41.1929 77.9857 41.4883 79.5254 41.4883ZM106.199 20.8633C108.187 20.8633 110.075 21.1408 111.866 21.6958C113.656 22.2508 115.223 23.0744 116.566 24.1665C117.908 25.2586 118.974 26.6193 119.761 28.2485C120.549 29.8599 120.943 31.7218 120.943 33.8345C120.943 35.8934 120.558 37.7285 119.788 39.3398C119.018 40.9512 117.971 42.276 116.646 43.3145C115.321 44.3529 113.764 45.1675 111.973 45.7583C110.183 46.3312 108.258 46.6177 106.199 46.6177C104.122 46.6177 102.189 46.3312 100.399 45.7583C98.6082 45.1854 97.0416 44.3797 95.6988 43.3413C94.374 42.3029 93.3266 40.978 92.5567 39.3667C91.8048 37.7554 91.4288 35.9113 91.4288 33.8345C91.4288 31.7935 91.8048 29.9673 92.5567 28.356C93.3087 26.7446 94.3471 25.384 95.672 24.2739C96.9968 23.1639 98.5545 22.3224 100.345 21.7495C102.153 21.1587 104.105 20.8633 106.199 20.8633ZM106.226 25.2944C104.185 25.2944 102.61 26.0464 101.5 27.5503C100.39 29.0542 99.8346 31.14 99.8346 33.8076C99.8346 36.4932 100.381 38.5879 101.473 40.0918C102.565 41.5778 104.122 42.3208 106.146 42.3208C107.148 42.3208 108.043 42.1239 108.831 41.73C109.619 41.3361 110.29 40.7721 110.845 40.0381C111.4 39.304 111.821 38.3999 112.108 37.3257C112.394 36.2515 112.537 35.043 112.537 33.7002C112.537 32.3932 112.394 31.2205 112.108 30.1821C111.821 29.1437 111.409 28.2664 110.872 27.5503C110.335 26.8162 109.673 26.2612 108.885 25.8853C108.097 25.4914 107.211 25.2944 106.226 25.2944ZM139.399 32.3574C139.399 31.319 139.328 30.4149 139.184 29.645C139.059 28.8752 138.844 28.2396 138.54 27.7383C138.235 27.2191 137.815 26.8341 137.278 26.5835C136.758 26.3149 136.114 26.1807 135.344 26.1807C134.234 26.1807 133.267 26.3776 132.444 26.7715C131.62 27.1475 130.859 27.792 130.161 28.7051C129.964 29.0094 129.803 29.5465 129.677 30.3164C129.552 31.0863 129.489 32.062 129.489 33.2437V39.4473C129.489 39.9844 129.552 40.4051 129.677 40.7095C129.803 40.9959 130.009 41.2108 130.295 41.354C130.582 41.4793 130.958 41.5599 131.423 41.5957C131.889 41.6315 132.461 41.6494 133.142 41.6494V46C132.479 46 131.844 46 131.235 46C130.626 46 130 46 129.355 46C128.711 45.9821 128.03 45.9731 127.314 45.9731C126.598 45.9552 125.81 45.9463 124.951 45.9463C124.217 45.9463 123.536 45.9552 122.91 45.9731C122.301 45.9731 121.71 45.9731 121.137 45.9731C120.582 45.9731 120.027 45.9821 119.472 46C118.935 46 118.389 46 117.834 46V41.6494C118.604 41.6494 119.213 41.6226 119.66 41.5688C120.126 41.5151 120.475 41.4167 120.708 41.2734C120.958 41.1123 121.12 40.8975 121.191 40.6289C121.263 40.3424 121.299 39.9754 121.299 39.5278V27.4429C121.299 26.7446 121.021 26.3149 120.466 26.1538C119.911 25.9927 119.078 25.9121 117.968 25.9121V21.6152C118.488 21.6152 118.98 21.6242 119.446 21.6421C119.929 21.66 120.421 21.6689 120.923 21.6689C122.319 21.6689 123.689 21.66 125.031 21.6421C126.374 21.6063 127.771 21.5705 129.221 21.5347V25.7778C129.686 25.1333 130.25 24.5335 130.913 23.9785C131.575 23.4056 132.327 22.9043 133.169 22.4746C134.028 22.0449 134.959 21.7048 135.962 21.4541C136.982 21.2035 138.074 21.0781 139.238 21.0781C141.136 21.0781 142.747 21.481 144.072 22.2866C145.397 23.0923 146.399 24.3097 147.08 25.939C148.458 24.3993 149.998 23.2087 151.699 22.3672C153.4 21.5078 155.226 21.0781 157.177 21.0781C158.807 21.0781 160.158 21.3377 161.233 21.8569C162.325 22.3582 163.202 23.1012 163.864 24.0859C164.527 25.0527 164.992 26.2612 165.261 27.7114C165.547 29.1437 165.691 30.7998 165.691 32.6797V40.0381C165.691 40.432 165.744 40.7363 165.852 40.9512C165.977 41.166 166.165 41.3271 166.416 41.4346C166.684 41.5241 167.024 41.5868 167.436 41.6226C167.866 41.6405 168.385 41.6494 168.994 41.6494V46C167.848 46 166.711 45.991 165.583 45.9731C164.455 45.9552 163.184 45.9463 161.77 45.9463C160.373 45.9463 159.075 45.9552 157.876 45.9731C156.694 45.991 155.486 46 154.25 46V41.6494C154.877 41.6494 155.396 41.6136 155.808 41.542C156.238 41.4525 156.569 41.3182 156.801 41.1392C157.052 40.9601 157.222 40.7095 157.312 40.3872C157.419 40.0649 157.473 39.6621 157.473 39.1787V31.7666C157.473 29.9404 157.177 28.5529 156.587 27.604C155.996 26.6551 154.922 26.1807 153.364 26.1807C152.129 26.1807 151.09 26.4313 150.249 26.9326C149.425 27.416 148.727 28.0426 148.154 28.8125C147.957 29.3675 147.814 29.9762 147.724 30.6387C147.653 31.3011 147.617 32.0262 147.617 32.814V39.9307C147.617 40.3066 147.671 40.611 147.778 40.8438C147.885 41.0586 148.056 41.2287 148.288 41.354C148.539 41.4793 148.87 41.5599 149.282 41.5957C149.694 41.6315 150.204 41.6494 150.813 41.6494V46C150.222 46 149.64 46 149.067 46C148.512 46 147.939 46 147.348 46C146.758 45.9821 146.131 45.9731 145.468 45.9731C144.806 45.9552 144.072 45.9463 143.266 45.9463C142.568 45.9463 141.915 45.9552 141.306 45.9731C140.697 45.9731 140.115 45.9731 139.56 45.9731C139.023 45.9731 138.486 45.9821 137.949 46C137.43 46 136.902 46 136.364 46V41.6494C137.546 41.6315 138.343 41.4346 138.755 41.0586C139.184 40.6826 139.399 40.1187 139.399 39.3667V32.3574ZM186.617 17.3721H183.717C183.628 16.5127 183.323 15.8145 182.804 15.2773C182.303 14.7223 181.604 14.4448 180.709 14.4448C179.922 14.4448 179.295 14.5881 178.829 14.8745C178.382 15.1431 178.042 15.528 177.809 16.0293C177.576 16.5306 177.424 17.1393 177.352 17.8555C177.281 18.5537 177.245 19.3236 177.245 20.165V21.6152H182.965V25.9121H177.245V39.5815C177.245 40.1007 177.343 40.5036 177.54 40.79C177.737 41.0586 178.015 41.2645 178.373 41.4077C178.749 41.533 179.205 41.6047 179.742 41.6226C180.28 41.6405 180.897 41.6494 181.596 41.6494V46C180.539 46 179.465 45.991 178.373 45.9731C177.442 45.9731 176.43 45.9731 175.338 45.9731C174.246 45.9552 173.199 45.9463 172.196 45.9463C171.48 45.9463 170.728 45.9552 169.94 45.9731C169.152 45.9731 168.427 45.9731 167.765 45.9731C166.995 45.991 166.234 46 165.482 46V43.9321C165.482 43.6636 165.482 43.404 165.482 43.1533C165.482 42.9027 165.482 42.6699 165.482 42.4551C165.5 42.2402 165.509 42.0612 165.509 41.918C165.509 41.7747 165.509 41.6852 165.509 41.6494C166.225 41.6494 166.807 41.6315 167.255 41.5957C167.72 41.5599 168.078 41.4704 168.329 41.3271C168.597 41.1839 168.776 40.9691 168.866 40.6826C168.973 40.3962 169.027 40.0023 169.027 39.501V25.9121H165.214V21.6152H169.027V19.9233C169.027 16.5933 169.904 14.1226 171.659 12.5112C173.431 10.8999 176.027 10.0942 179.447 10.0942C180.038 10.0942 180.656 10.1121 181.3 10.1479C181.963 10.1838 182.625 10.2375 183.287 10.3091C183.95 10.3628 184.603 10.4434 185.248 10.5508C185.892 10.6403 186.51 10.7388 187.101 10.8462L186.617 17.3721ZM176.795 21.6152C178.12 21.6152 179.346 21.6242 180.474 21.6421C181.62 21.66 182.64 21.6689 183.536 21.6689C184.717 21.6689 185.953 21.6689 187.242 21.6689C188.531 21.651 189.999 21.6331 191.646 21.6152V25.9658C191.359 26.0016 191.064 26.0195 190.76 26.0195C190.473 26.0016 190.205 26.0016 189.954 26.0195C189.435 26.0732 189.032 26.1807 188.746 26.3418C188.459 26.5029 188.28 26.7804 188.208 27.1743C188.262 27.4429 188.343 27.7293 188.45 28.0337C188.558 28.3381 188.683 28.6514 188.826 28.9736C188.969 29.278 189.113 29.5824 189.256 29.8867C189.417 30.1911 189.551 30.4686 189.659 30.7192L193.767 40.1187C193.982 39.5994 194.26 38.9191 194.6 38.0776C194.958 37.2362 195.343 36.3141 195.755 35.3115C196.184 34.291 196.623 33.2257 197.071 32.1157C197.518 30.9878 197.948 29.8957 198.36 28.8394C198.646 28.1411 198.834 27.5503 198.924 27.0669C198.816 26.6551 198.53 26.3687 198.064 26.2075C197.617 26.0464 196.82 25.9658 195.674 25.9658V21.6152C196.874 21.6331 197.93 21.651 198.843 21.6689C199.756 21.6689 200.678 21.6689 201.609 21.6689C202.612 21.6689 203.641 21.6689 204.698 21.6689C205.754 21.651 206.936 21.6331 208.243 21.6152C208.243 21.6868 208.243 21.9465 208.243 22.394C208.243 22.8237 208.243 23.2982 208.243 23.8174C208.243 24.3187 208.243 24.7931 208.243 25.2407C208.26 25.6704 208.278 25.9121 208.296 25.9658C207.544 25.9837 206.954 26.0374 206.524 26.127C206.094 26.2165 205.745 26.3687 205.476 26.5835C205.208 26.7983 204.966 27.1027 204.751 27.4966C204.554 27.8726 204.295 28.356 203.973 28.9468C203.758 29.4481 203.4 30.2358 202.898 31.3101C202.415 32.3843 201.851 33.6017 201.206 34.9624C200.58 36.3231 199.917 37.7643 199.219 39.2861C198.521 40.79 197.85 42.2313 197.205 43.6099C196.578 44.9705 196.014 46.188 195.513 47.2622C195.03 48.3364 194.681 49.1242 194.466 49.6255C193.803 51.0399 193.168 52.2215 192.559 53.1704C191.968 54.1193 191.333 54.8802 190.652 55.4531C189.972 56.0439 189.211 56.4647 188.37 56.7153C187.528 56.966 186.543 57.0913 185.415 57.0913C185.057 57.0913 184.619 57.0913 184.1 57.0913C183.58 57.0913 183.142 57.1003 182.784 57.1182V52.5796C183.16 52.5796 183.5 52.5796 183.804 52.5796C184.126 52.5796 184.422 52.5706 184.69 52.5527C185.389 52.5348 185.961 52.4453 186.409 52.2842C186.875 52.123 187.286 51.8455 187.644 51.4517C188.02 51.0757 188.378 50.5565 188.719 49.894C189.059 49.2495 189.462 48.417 189.927 47.3965C188.37 44.0306 186.964 41.0049 185.711 38.3193C185.174 37.1735 184.646 36.0545 184.126 34.9624C183.625 33.8524 183.169 32.8587 182.757 31.9814C182.345 31.0863 182.005 30.3612 181.736 29.8062C181.486 29.2332 181.342 28.911 181.307 28.8394C181.038 28.2664 180.805 27.8099 180.608 27.4697C180.411 27.1296 180.17 26.87 179.883 26.6909C179.597 26.5119 179.212 26.4045 178.728 26.3687C178.263 26.3149 177.618 26.306 176.795 26.3418V21.6152Z" fill="#1E40AF"/>
<path d="M221.193 30.1016V37.2183H203.442V30.1016H221.193ZM240.106 32.1694C240.106 31.2563 240.052 30.4059 239.945 29.6182C239.837 28.8125 239.632 28.1232 239.327 27.5503C239.023 26.9595 238.593 26.5029 238.038 26.1807C237.483 25.8405 236.767 25.6704 235.89 25.6704C234.905 25.6704 234.055 25.8136 233.338 26.1001C232.622 26.3866 232.014 26.7804 231.512 27.2817C231.029 27.7651 230.644 28.3381 230.358 29.0005C230.071 29.645 229.865 30.3343 229.74 31.0684V40.0381C229.74 40.4499 229.811 40.7632 229.955 40.978C230.098 41.1929 230.313 41.354 230.599 41.4614C230.904 41.5509 231.289 41.6047 231.754 41.6226C232.219 41.6405 232.783 41.6494 233.446 41.6494V46C232.73 46 232.04 46 231.378 46C230.733 46 230.062 46 229.364 46C228.684 45.9821 227.967 45.9731 227.215 45.9731C226.463 45.9552 225.631 45.9463 224.718 45.9463C224.02 45.9463 223.366 45.9552 222.757 45.9731C222.167 45.9731 221.594 45.9731 221.039 45.9731C220.502 45.9731 219.973 45.9821 219.454 46C218.935 46 218.407 46 217.87 46V41.6494C218.693 41.6494 219.347 41.6315 219.83 41.5957C220.314 41.5599 220.681 41.4793 220.931 41.354C221.182 41.2108 221.343 41.0049 221.415 40.7363C221.486 40.4499 221.522 40.0649 221.522 39.5815V16.6738C221.522 16.3337 221.459 16.0651 221.334 15.8682C221.209 15.6533 221.03 15.4922 220.797 15.3848C220.582 15.2773 220.323 15.2057 220.018 15.1699C219.714 15.1341 219.374 15.1162 218.998 15.1162H218.031V10.873C218.98 10.891 219.955 10.891 220.958 10.873C221.979 10.8551 222.972 10.8462 223.939 10.8462C224.87 10.8462 225.81 10.8372 226.759 10.8193C227.708 10.8014 228.692 10.7656 229.713 10.7119V25.0527C230.966 23.6742 232.399 22.6626 234.01 22.0181C235.621 21.3735 237.412 21.0513 239.381 21.0513C241.01 21.0513 242.389 21.293 243.517 21.7764C244.663 22.2419 245.585 22.967 246.283 23.9517C246.999 24.9364 247.518 26.1986 247.84 27.7383C248.163 29.2601 248.324 31.0773 248.324 33.1899V39.2861C248.324 39.8232 248.36 40.2529 248.431 40.5752C248.503 40.8796 248.628 41.1123 248.807 41.2734C249.004 41.4346 249.255 41.542 249.559 41.5957C249.864 41.6315 250.248 41.6494 250.714 41.6494H251.654V46C251.081 46 250.526 46 249.989 46C249.452 46 248.897 46 248.324 46C247.751 45.9821 247.151 45.9731 246.525 45.9731C245.898 45.9552 245.209 45.9463 244.457 45.9463C243.687 45.9463 242.971 45.9552 242.308 45.9731C241.646 45.9731 241.01 45.9731 240.401 45.9731C239.793 45.9731 239.202 45.9821 238.629 46C238.056 46 237.474 46 236.883 46V41.6494C237.582 41.6494 238.137 41.5957 238.548 41.4883C238.978 41.363 239.309 41.1929 239.542 40.978C239.775 40.7632 239.927 40.5036 239.999 40.1992C240.07 39.877 240.106 39.5278 240.106 39.1519V32.1694ZM263.02 20.8633C265.008 20.8633 266.896 21.1408 268.687 21.6958C270.477 22.2508 272.044 23.0744 273.386 24.1665C274.729 25.2586 275.794 26.6193 276.582 28.2485C277.37 29.8599 277.764 31.7218 277.764 33.8345C277.764 35.8934 277.379 37.7285 276.609 39.3398C275.839 40.9512 274.792 42.276 273.467 43.3145C272.142 44.3529 270.585 45.1675 268.794 45.7583C267.004 46.3312 265.079 46.6177 263.02 46.6177C260.943 46.6177 259.01 46.3312 257.219 45.7583C255.429 45.1854 253.863 44.3797 252.52 43.3413C251.195 42.3029 250.147 40.978 249.378 39.3667C248.626 37.7554 248.25 35.9113 248.25 33.8345C248.25 31.7935 248.626 29.9673 249.378 28.356C250.13 26.7446 251.168 25.384 252.493 24.2739C253.818 23.1639 255.375 22.3224 257.166 21.7495C258.974 21.1587 260.925 20.8633 263.02 20.8633ZM263.047 25.2944C261.006 25.2944 259.431 26.0464 258.321 27.5503C257.21 29.0542 256.655 31.14 256.655 33.8076C256.655 36.4932 257.202 38.5879 258.294 40.0918C259.386 41.5778 260.943 42.3208 262.967 42.3208C263.969 42.3208 264.864 42.1239 265.652 41.73C266.44 41.3361 267.111 40.7721 267.666 40.0381C268.221 39.304 268.642 38.3999 268.928 37.3257C269.215 36.2515 269.358 35.043 269.358 33.7002C269.358 32.3932 269.215 31.2205 268.928 30.1821C268.642 29.1437 268.23 28.2664 267.693 27.5503C267.156 26.8162 266.494 26.2612 265.706 25.8853C264.918 25.4914 264.032 25.2944 263.047 25.2944ZM296.22 32.3574C296.22 31.319 296.148 30.4149 296.005 29.645C295.88 28.8752 295.665 28.2396 295.361 27.7383C295.056 27.2191 294.636 26.8341 294.098 26.5835C293.579 26.3149 292.935 26.1807 292.165 26.1807C291.055 26.1807 290.088 26.3776 289.264 26.7715C288.441 27.1475 287.68 27.792 286.982 28.7051C286.785 29.0094 286.624 29.5465 286.498 30.3164C286.373 31.0863 286.31 32.062 286.31 33.2437V39.4473C286.31 39.9844 286.373 40.4051 286.498 40.7095C286.624 40.9959 286.83 41.2108 287.116 41.354C287.402 41.4793 287.778 41.5599 288.244 41.5957C288.709 41.6315 289.282 41.6494 289.963 41.6494V46C289.3 46 288.665 46 288.056 46C287.447 46 286.821 46 286.176 46C285.532 45.9821 284.851 45.9731 284.135 45.9731C283.419 45.9552 282.631 45.9463 281.772 45.9463C281.038 45.9463 280.357 45.9552 279.731 45.9731C279.122 45.9731 278.531 45.9731 277.958 45.9731C277.403 45.9731 276.848 45.9821 276.293 46C275.756 46 275.21 46 274.655 46V41.6494C275.425 41.6494 276.034 41.6226 276.481 41.5688C276.947 41.5151 277.296 41.4167 277.529 41.2734C277.779 41.1123 277.94 40.8975 278.012 40.6289C278.084 40.3424 278.119 39.9754 278.119 39.5278V27.4429C278.119 26.7446 277.842 26.3149 277.287 26.1538C276.732 25.9927 275.899 25.9121 274.789 25.9121V21.6152C275.309 21.6152 275.801 21.6242 276.266 21.6421C276.75 21.66 277.242 21.6689 277.743 21.6689C279.14 21.6689 280.51 21.66 281.852 21.6421C283.195 21.6063 284.592 21.5705 286.042 21.5347V25.7778C286.507 25.1333 287.071 24.5335 287.734 23.9785C288.396 23.4056 289.148 22.9043 289.99 22.4746C290.849 22.0449 291.78 21.7048 292.783 21.4541C293.803 21.2035 294.895 21.0781 296.059 21.0781C297.957 21.0781 299.568 21.481 300.893 22.2866C302.218 23.0923 303.22 24.3097 303.901 25.939C305.279 24.3993 306.819 23.2087 308.52 22.3672C310.221 21.5078 312.047 21.0781 313.998 21.0781C315.628 21.0781 316.979 21.3377 318.054 21.8569C319.146 22.3582 320.023 23.1012 320.685 24.0859C321.348 25.0527 321.813 26.2612 322.082 27.7114C322.368 29.1437 322.512 30.7998 322.512 32.6797V40.0381C322.512 40.432 322.565 40.7363 322.673 40.9512C322.798 41.166 322.986 41.3271 323.237 41.4346C323.505 41.5241 323.845 41.5868 324.257 41.6226C324.687 41.6405 325.206 41.6494 325.815 41.6494V46C324.669 46 323.532 45.991 322.404 45.9731C321.276 45.9552 320.005 45.9463 318.591 45.9463C317.194 45.9463 315.896 45.9552 314.697 45.9731C313.515 45.991 312.306 46 311.071 46V41.6494C311.698 41.6494 312.217 41.6136 312.629 41.542C313.058 41.4525 313.39 41.3182 313.622 41.1392C313.873 40.9601 314.043 40.7095 314.133 40.3872C314.24 40.0649 314.294 39.6621 314.294 39.1787V31.7666C314.294 29.9404 313.998 28.5529 313.408 27.604C312.817 26.6551 311.742 26.1807 310.185 26.1807C308.95 26.1807 307.911 26.4313 307.07 26.9326C306.246 27.416 305.548 28.0426 304.975 28.8125C304.778 29.3675 304.635 29.9762 304.545 30.6387C304.474 31.3011 304.438 32.0262 304.438 32.814V39.9307C304.438 40.3066 304.492 40.611 304.599 40.8438C304.706 41.0586 304.876 41.2287 305.109 41.354C305.36 41.4793 305.691 41.5599 306.103 41.5957C306.515 41.6315 307.025 41.6494 307.634 41.6494V46C307.043 46 306.461 46 305.888 46C305.333 46 304.76 46 304.169 46C303.578 45.9821 302.952 45.9731 302.289 45.9731C301.627 45.9552 300.893 45.9463 300.087 45.9463C299.389 45.9463 298.735 45.9552 298.127 45.9731C297.518 45.9731 296.936 45.9731 296.381 45.9731C295.844 45.9731 295.307 45.9821 294.77 46C294.251 46 293.722 46 293.185 46V41.6494C294.367 41.6315 295.164 41.4346 295.575 41.0586C296.005 40.6826 296.22 40.1187 296.22 39.3667V32.3574ZM349.293 34.855H331.031C331.049 37.4152 331.676 39.304 332.911 40.5215C334.146 41.721 335.838 42.3208 337.987 42.3208C339.509 42.3208 340.789 41.9717 341.827 41.2734C342.883 40.5752 343.635 39.7337 344.083 38.749L350.206 39.2324C349.49 41.6852 348.013 43.5293 345.775 44.7646C343.555 46 340.753 46.6177 337.369 46.6177C334.898 46.6177 332.75 46.2954 330.924 45.6509C329.098 45.0063 327.576 44.138 326.358 43.0459C325.141 41.9538 324.228 40.62 323.619 39.0444C323.028 37.4689 322.733 35.7502 322.733 33.8882C322.733 31.9009 323.064 30.1016 323.726 28.4902C324.407 26.8789 325.365 25.5093 326.6 24.3813C327.835 23.2534 329.321 22.3851 331.058 21.7764C332.795 21.1676 334.728 20.8633 336.859 20.8633C338.918 20.8633 340.798 21.1587 342.498 21.7495C344.199 22.3224 345.658 23.1908 346.876 24.3545C348.093 25.5003 349.042 26.9326 349.723 28.6514C350.403 30.3701 350.743 32.3664 350.743 34.6401L349.293 34.855ZM343.062 31.3638V31.1758C343.062 31.1221 343.053 31.0684 343.036 31.0146C343.036 30.943 343.036 30.8714 343.036 30.7998C342.874 28.902 342.284 27.4339 341.263 26.3955C340.243 25.3392 338.9 24.811 337.235 24.811C335.391 24.811 333.941 25.3929 332.884 26.5566C331.846 27.7204 331.255 29.3138 331.112 31.3369H343.062V31.3638ZM370.354 29.0005H366.111C365.824 27.6935 365.144 26.6551 364.07 25.8853C363.014 25.1154 361.608 24.7036 359.854 24.6499C359.137 24.6499 358.52 24.7215 358 24.8647C357.499 25.008 357.087 25.2049 356.765 25.4556C356.443 25.6883 356.201 25.9658 356.04 26.2881C355.897 26.5924 355.825 26.9147 355.825 27.2549C355.825 27.6846 355.959 28.0605 356.228 28.3828C356.497 28.6872 356.882 28.9736 357.383 29.2422C357.884 29.5107 358.493 29.7703 359.209 30.021C359.943 30.2537 360.776 30.5044 361.707 30.7729C363.282 31.2026 364.67 31.6592 365.869 32.1426C367.087 32.6081 368.107 33.1541 368.931 33.7808C369.772 34.4074 370.408 35.1414 370.837 35.9829C371.267 36.8065 371.482 37.8091 371.482 38.9907C371.482 40.3335 371.195 41.4883 370.623 42.4551C370.05 43.404 369.289 44.1917 368.34 44.8184C367.409 45.445 366.344 45.9015 365.144 46.188C363.944 46.4744 362.709 46.6177 361.438 46.6177C359.612 46.6177 358.081 46.3939 356.846 45.9463C355.628 45.4808 354.626 44.7826 353.838 43.8516L353.73 45.9731C352.889 45.9731 352.065 45.9463 351.26 45.8926C350.472 45.8389 349.666 45.812 348.843 45.812V38.1851H353.704C353.775 38.9907 353.99 39.6979 354.348 40.3066C354.724 40.9154 355.199 41.4256 355.771 41.8374C356.344 42.2313 356.998 42.5267 357.732 42.7236C358.466 42.9206 359.245 43.019 360.068 43.019C361.322 43.019 362.351 42.7863 363.157 42.3208C363.962 41.8553 364.365 41.2197 364.365 40.4141C364.365 39.877 364.141 39.4204 363.694 39.0444C363.264 38.6506 362.682 38.2925 361.948 37.9702C361.232 37.6479 360.4 37.3346 359.451 37.0303C358.52 36.7259 357.553 36.3947 356.55 36.0366C355.351 35.6069 354.268 35.1683 353.301 34.7207C352.352 34.2731 351.537 33.7629 350.857 33.1899C350.194 32.617 349.684 31.9456 349.326 31.1758C348.968 30.4059 348.789 29.4839 348.789 28.4097C348.789 27.2996 348.995 26.297 349.407 25.4019C349.836 24.4888 350.454 23.7189 351.26 23.0923C352.065 22.4478 353.059 21.9554 354.241 21.6152C355.422 21.2572 356.765 21.0781 358.269 21.0781C359.845 21.0781 361.313 21.284 362.673 21.6958C364.034 22.0897 365.108 22.6895 365.896 23.4951C365.914 23.3877 365.941 23.2266 365.977 23.0117C366.03 22.779 366.084 22.5462 366.138 22.3135C366.209 22.0449 366.272 21.7495 366.326 21.4272C366.863 21.481 367.382 21.5347 367.883 21.5884C368.313 21.6242 368.752 21.66 369.199 21.6958C369.665 21.7316 370.05 21.7674 370.354 21.8032V29.0005Z" fill="black"/>
</g>
</svg>
