<svg width="318" height="48" viewBox="0 0 318 48" fill="none" xmlns="http://www.w3.org/2000/svg">
<path d="M3.60368 22.1175C2.95486 22.0562 2.25039 21.7862 1.73066 21.0479C0.637406 19.4957 0.77769 17.1929 2.10865 15.8399L3.60368 22.1175ZM3.60368 22.1175V35.9581C3.60368 37.4658 4.66497 39 6.31987 39H14.5346C15.6014 39 16.2052 38.0431 16.2052 37.2129V25.2094H19.7962V37.2129C19.7962 38.0426 20.3994 39 21.4664 39H29.6813C31.3362 39 32.3975 37.4658 32.3975 35.9581V22.1158C33.0453 22.0546 33.7497 21.7861 34.27 21.0484L34.2707 21.0474C35.3617 19.4963 35.2229 17.1912 33.8902 15.8406C33.89 15.8405 33.8899 15.8403 33.8897 15.8402L20.2544 1.97052L20.2544 1.9705L20.2486 1.96476C20.1602 1.87628 20.0617 1.79889 19.9557 1.73377C18.6858 0.676871 16.929 0.766737 15.7456 1.97048C15.7456 1.9705 15.7456 1.97052 15.7456 1.97054L2.1089 15.8397L3.60368 22.1175ZM29.0555 35.4243H23.1355V23.4208C23.1355 22.5906 22.5321 21.6337 21.4652 21.6337H14.5334C13.4665 21.6337 12.863 22.5906 12.863 23.4208V35.4243H6.94306V19.9823C6.94306 19.4473 6.71569 18.886 6.24467 18.5272L6.24284 18.5258C5.75373 18.1551 5.10663 18.091 4.55485 18.3666L4.54801 18.3701L4.54122 18.3736C4.50001 18.395 4.45441 18.4156 4.40639 18.435C4.40776 18.4335 4.40914 18.432 4.41054 18.4306L17.979 4.62933C18.0339 4.67921 18.0917 4.72491 18.1518 4.76622L31.587 18.4338L31.587 18.4339C31.5415 18.4151 31.4963 18.3944 31.4525 18.372C30.8883 18.0817 30.2317 18.1591 29.7487 18.533C29.2859 18.8892 29.0555 19.4462 29.0555 19.9825V35.4243Z" fill="#1E40AF" stroke="#1E40AF" stroke-width="2"/>
<g style="mix-blend-mode:darken">
<path d="M53.8313 34.0625C55.0188 34.0625 56.0578 33.9375 56.9484 33.6875C57.8547 33.4375 58.6125 33.0312 59.2219 32.4688C59.8313 31.9062 60.3 31.1719 60.6281 30.2656C60.9719 29.3594 61.175 28.25 61.2375 26.9375L66.0188 27.9688L65.6672 35.0938C63.8234 36.3281 61.8625 37.2266 59.7844 37.7891C57.7063 38.3359 55.4563 38.6094 53.0344 38.6094C50.1906 38.6094 47.7453 38.1953 45.6984 37.3672C43.6516 36.5391 41.9719 35.4062 40.6594 33.9688C39.3469 32.5312 38.3781 30.8438 37.7531 28.9062C37.1281 26.9688 36.8156 24.8906 36.8156 22.6719C36.8156 20.3438 37.1672 18.2031 37.8703 16.25C38.5891 14.2969 39.6125 12.6172 40.9406 11.2109C42.2688 9.80469 43.8859 8.71094 45.7922 7.92969C47.6984 7.14844 49.8547 6.75781 52.2609 6.75781C52.9797 6.75781 53.7219 6.82031 54.4875 6.94531C55.2531 7.07031 55.9875 7.25 56.6906 7.48438C57.3938 7.71875 58.0422 8 58.6359 8.32812C59.2453 8.65625 59.7609 9.02344 60.1828 9.42969L60.3 7.41406H65.5031V17.0234L60.6984 17C60.5734 15.2188 59.9328 13.8281 58.7766 12.8281C57.6203 11.8125 55.9484 11.3047 53.7609 11.3047C52.4328 11.3047 51.2453 11.5469 50.1984 12.0312C49.1516 12.5156 48.2609 13.2344 47.5266 14.1875C46.8078 15.125 46.2531 16.3047 45.8625 17.7266C45.4719 19.1328 45.2766 20.7578 45.2766 22.6016C45.2766 24.4141 45.4719 26.0312 45.8625 27.4531C46.2531 28.875 46.8156 30.0781 47.55 31.0625C48.2844 32.0312 49.175 32.7734 50.2219 33.2891C51.2844 33.8047 52.4875 34.0625 53.8313 34.0625ZM77.1103 16.0625C78.8447 16.0625 80.4931 16.3047 82.0556 16.7891C83.6181 17.2734 84.9853 17.9922 86.1572 18.9453C87.3291 19.8984 88.2588 21.0859 88.9463 22.5078C89.6338 23.9141 89.9775 25.5391 89.9775 27.3828C89.9775 29.1797 89.6416 30.7812 88.9697 32.1875C88.2978 33.5938 87.3838 34.75 86.2275 35.6562C85.0713 36.5625 83.7119 37.2734 82.1494 37.7891C80.5869 38.2891 78.9072 38.5391 77.1103 38.5391C75.2978 38.5391 73.6103 38.2891 72.0478 37.7891C70.4853 37.2891 69.1181 36.5859 67.9463 35.6797C66.79 34.7734 65.8759 33.6172 65.2041 32.2109C64.5478 30.8047 64.2197 29.1953 64.2197 27.3828C64.2197 25.6016 64.5478 24.0078 65.2041 22.6016C65.8603 21.1953 66.7666 20.0078 67.9228 19.0391C69.0791 18.0703 70.4384 17.3359 72.0009 16.8359C73.5791 16.3203 75.2822 16.0625 77.1103 16.0625ZM77.1338 19.9297C75.3525 19.9297 73.9775 20.5859 73.0088 21.8984C72.04 23.2109 71.5556 25.0312 71.5556 27.3594C71.5556 29.7031 72.0322 31.5312 72.9853 32.8438C73.9384 34.1406 75.2978 34.7891 77.0634 34.7891C77.9384 34.7891 78.7197 34.6172 79.4072 34.2734C80.0947 33.9297 80.6806 33.4375 81.165 32.7969C81.6494 32.1562 82.0166 31.3672 82.2666 30.4297C82.5166 29.4922 82.6416 28.4375 82.6416 27.2656C82.6416 26.125 82.5166 25.1016 82.2666 24.1953C82.0166 23.2891 81.6572 22.5234 81.1884 21.8984C80.7197 21.2578 80.1416 20.7734 79.4541 20.4453C78.7666 20.1016 77.9931 19.9297 77.1338 19.9297ZM106.085 26.0938C106.085 25.1875 106.022 24.3984 105.897 23.7266C105.788 23.0547 105.6 22.5 105.335 22.0625C105.069 21.6094 104.702 21.2734 104.233 21.0547C103.78 20.8203 103.218 20.7031 102.546 20.7031C101.577 20.7031 100.733 20.875 100.014 21.2188C99.2956 21.5469 98.6316 22.1094 98.0222 22.9062C97.8503 23.1719 97.7097 23.6406 97.6003 24.3125C97.4909 24.9844 97.4363 25.8359 97.4363 26.8672V32.2812C97.4363 32.75 97.4909 33.1172 97.6003 33.3828C97.7097 33.6328 97.8894 33.8203 98.1394 33.9453C98.3894 34.0547 98.7175 34.125 99.1238 34.1562C99.53 34.1875 100.03 34.2031 100.624 34.2031V38C100.046 38 99.4909 38 98.9597 38C98.4284 38 97.8816 38 97.3191 38C96.7566 37.9844 96.1628 37.9766 95.5378 37.9766C94.9128 37.9609 94.2253 37.9531 93.4753 37.9531C92.8347 37.9531 92.2409 37.9609 91.6941 37.9766C91.1628 37.9766 90.6472 37.9766 90.1472 37.9766C89.6628 37.9766 89.1784 37.9844 88.6941 38C88.2253 38 87.7488 38 87.2644 38V34.2031C87.9363 34.2031 88.4675 34.1797 88.8581 34.1328C89.2644 34.0859 89.5691 34 89.7722 33.875C89.9909 33.7344 90.1316 33.5469 90.1941 33.3125C90.2566 33.0625 90.2878 32.7422 90.2878 32.3516V21.8047C90.2878 21.1953 90.0456 20.8203 89.5613 20.6797C89.0769 20.5391 88.3503 20.4688 87.3816 20.4688V16.7188C87.8347 16.7188 88.2644 16.7266 88.6706 16.7422C89.0925 16.7578 89.5222 16.7656 89.9597 16.7656C91.1784 16.7656 92.3738 16.7578 93.5456 16.7422C94.7175 16.7109 95.9363 16.6797 97.2019 16.6484V20.3516C97.6081 19.7891 98.1003 19.2656 98.6784 18.7812C99.2566 18.2812 99.9128 17.8438 100.647 17.4688C101.397 17.0938 102.21 16.7969 103.085 16.5781C103.975 16.3594 104.928 16.25 105.944 16.25C107.6 16.25 109.007 16.6016 110.163 17.3047C111.319 18.0078 112.194 19.0703 112.788 20.4922C113.991 19.1484 115.335 18.1094 116.819 17.375C118.303 16.625 119.897 16.25 121.6 16.25C123.022 16.25 124.202 16.4766 125.139 16.9297C126.093 17.3672 126.858 18.0156 127.436 18.875C128.014 19.7188 128.421 20.7734 128.655 22.0391C128.905 23.2891 129.03 24.7344 129.03 26.375V32.7969C129.03 33.1406 129.077 33.4062 129.171 33.5938C129.28 33.7812 129.444 33.9219 129.663 34.0156C129.897 34.0938 130.194 34.1484 130.553 34.1797C130.928 34.1953 131.382 34.2031 131.913 34.2031V38C130.913 38 129.921 37.9922 128.936 37.9766C127.952 37.9609 126.843 37.9531 125.608 37.9531C124.389 37.9531 123.257 37.9609 122.21 37.9766C121.178 37.9922 120.124 38 119.046 38V34.2031C119.593 34.2031 120.046 34.1719 120.405 34.1094C120.78 34.0312 121.069 33.9141 121.272 33.7578C121.491 33.6016 121.639 33.3828 121.718 33.1016C121.811 32.8203 121.858 32.4688 121.858 32.0469V25.5781C121.858 23.9844 121.6 22.7734 121.085 21.9453C120.569 21.1172 119.632 20.7031 118.272 20.7031C117.194 20.7031 116.288 20.9219 115.553 21.3594C114.835 21.7812 114.225 22.3281 113.725 23C113.553 23.4844 113.428 24.0156 113.35 24.5938C113.288 25.1719 113.257 25.8047 113.257 26.4922V32.7031C113.257 33.0312 113.303 33.2969 113.397 33.5C113.491 33.6875 113.639 33.8359 113.843 33.9453C114.061 34.0547 114.35 34.125 114.71 34.1562C115.069 34.1875 115.514 34.2031 116.046 34.2031V38C115.53 38 115.022 38 114.522 38C114.038 38 113.538 38 113.022 38C112.507 37.9844 111.96 37.9766 111.382 37.9766C110.803 37.9609 110.163 37.9531 109.46 37.9531C108.85 37.9531 108.28 37.9609 107.749 37.9766C107.218 37.9766 106.71 37.9766 106.225 37.9766C105.757 37.9766 105.288 37.9844 104.819 38C104.366 38 103.905 38 103.436 38V34.2031C104.468 34.1875 105.163 34.0156 105.522 33.6875C105.897 33.3594 106.085 32.8672 106.085 32.2109V26.0938ZM147.293 13.0156H144.762C144.684 12.2656 144.418 11.6562 143.965 11.1875C143.528 10.7031 142.918 10.4609 142.137 10.4609C141.45 10.4609 140.903 10.5859 140.497 10.8359C140.106 11.0703 139.809 11.4062 139.606 11.8438C139.403 12.2813 139.27 12.8125 139.208 13.4375C139.145 14.0469 139.114 14.7188 139.114 15.4531V16.7188H144.106V20.4688H139.114V32.3984C139.114 32.8516 139.2 33.2031 139.372 33.4531C139.543 33.6875 139.786 33.8672 140.098 33.9922C140.426 34.1016 140.825 34.1641 141.293 34.1797C141.762 34.1953 142.301 34.2031 142.911 34.2031V38C141.989 38 141.051 37.9922 140.098 37.9766C139.286 37.9766 138.403 37.9766 137.45 37.9766C136.497 37.9609 135.583 37.9531 134.708 37.9531C134.083 37.9531 133.426 37.9609 132.739 37.9766C132.051 37.9766 131.418 37.9766 130.84 37.9766C130.168 37.9922 129.504 38 128.848 38V36.1953C128.848 35.9609 128.848 35.7344 128.848 35.5156C128.848 35.2969 128.848 35.0938 128.848 34.9062C128.864 34.7188 128.872 34.5625 128.872 34.4375C128.872 34.3125 128.872 34.2344 128.872 34.2031C129.497 34.2031 130.004 34.1875 130.395 34.1562C130.801 34.125 131.114 34.0469 131.333 33.9219C131.567 33.7969 131.723 33.6094 131.801 33.3594C131.895 33.1094 131.942 32.7656 131.942 32.3281V20.4688H128.614V16.7188H131.942V15.2422C131.942 12.3359 132.708 10.1797 134.239 8.77344C135.786 7.36719 138.051 6.66406 141.036 6.66406C141.551 6.66406 142.09 6.67969 142.653 6.71094C143.231 6.74219 143.809 6.78906 144.387 6.85156C144.965 6.89844 145.536 6.96875 146.098 7.0625C146.661 7.14062 147.2 7.22656 147.715 7.32031L147.293 13.0156ZM138.721 16.7188C139.877 16.7188 140.948 16.7266 141.932 16.7422C142.932 16.7578 143.823 16.7656 144.604 16.7656C145.635 16.7656 146.713 16.7656 147.838 16.7656C148.963 16.75 150.244 16.7344 151.682 16.7188V20.5156C151.432 20.5469 151.174 20.5625 150.908 20.5625C150.658 20.5469 150.424 20.5469 150.205 20.5625C149.752 20.6094 149.401 20.7031 149.151 20.8438C148.901 20.9844 148.744 21.2266 148.682 21.5703C148.729 21.8047 148.799 22.0547 148.893 22.3203C148.987 22.5859 149.096 22.8594 149.221 23.1406C149.346 23.4062 149.471 23.6719 149.596 23.9375C149.737 24.2031 149.854 24.4453 149.948 24.6641L153.533 32.8672C153.721 32.4141 153.963 31.8203 154.26 31.0859C154.573 30.3516 154.908 29.5469 155.268 28.6719C155.643 27.7812 156.026 26.8516 156.416 25.8828C156.807 24.8984 157.182 23.9453 157.541 23.0234C157.791 22.4141 157.955 21.8984 158.033 21.4766C157.94 21.1172 157.69 20.8672 157.283 20.7266C156.893 20.5859 156.198 20.5156 155.198 20.5156V16.7188C156.244 16.7344 157.166 16.75 157.963 16.7656C158.76 16.7656 159.565 16.7656 160.377 16.7656C161.252 16.7656 162.151 16.7656 163.073 16.7656C163.994 16.75 165.026 16.7344 166.166 16.7188C166.166 16.7812 166.166 17.0078 166.166 17.3984C166.166 17.7734 166.166 18.1875 166.166 18.6406C166.166 19.0781 166.166 19.4922 166.166 19.8828C166.182 20.2578 166.198 20.4688 166.213 20.5156C165.557 20.5312 165.041 20.5781 164.666 20.6562C164.291 20.7344 163.987 20.8672 163.752 21.0547C163.518 21.2422 163.307 21.5078 163.119 21.8516C162.948 22.1797 162.721 22.6016 162.44 23.1172C162.252 23.5547 161.94 24.2422 161.502 25.1797C161.08 26.1172 160.588 27.1797 160.026 28.3672C159.479 29.5547 158.901 30.8125 158.291 32.1406C157.682 33.4531 157.096 34.7109 156.533 35.9141C155.987 37.1016 155.494 38.1641 155.057 39.1016C154.635 40.0391 154.33 40.7266 154.143 41.1641C153.565 42.3984 153.01 43.4297 152.479 44.2578C151.963 45.0859 151.408 45.75 150.815 46.25C150.221 46.7656 149.557 47.1328 148.823 47.3516C148.088 47.5703 147.229 47.6797 146.244 47.6797C145.932 47.6797 145.549 47.6797 145.096 47.6797C144.643 47.6797 144.26 47.6875 143.948 47.7031V43.7422C144.276 43.7422 144.573 43.7422 144.838 43.7422C145.119 43.7422 145.377 43.7344 145.612 43.7188C146.221 43.7031 146.721 43.625 147.112 43.4844C147.518 43.3438 147.877 43.1016 148.19 42.7578C148.518 42.4297 148.83 41.9766 149.127 41.3984C149.424 40.8359 149.776 40.1094 150.182 39.2188C148.823 36.2812 147.596 33.6406 146.502 31.2969C146.033 30.2969 145.573 29.3203 145.119 28.3672C144.682 27.3984 144.283 26.5312 143.924 25.7656C143.565 24.9844 143.268 24.3516 143.033 23.8672C142.815 23.3672 142.69 23.0859 142.658 23.0234C142.424 22.5234 142.221 22.125 142.049 21.8281C141.877 21.5312 141.666 21.3047 141.416 21.1484C141.166 20.9922 140.83 20.8984 140.408 20.8672C140.002 20.8203 139.44 20.8125 138.721 20.8438V16.7188Z" fill="#1E40AF"/>
<path d="M177.469 24.125V30.3359H161.977V24.125H177.469ZM193.974 25.9297C193.974 25.1328 193.928 24.3906 193.834 23.7031C193.74 23 193.56 22.3984 193.295 21.8984C193.029 21.3828 192.654 20.9844 192.17 20.7031C191.685 20.4062 191.06 20.2578 190.295 20.2578C189.435 20.2578 188.693 20.3828 188.068 20.6328C187.443 20.8828 186.912 21.2266 186.474 21.6641C186.053 22.0859 185.717 22.5859 185.467 23.1641C185.217 23.7266 185.037 24.3281 184.928 24.9688V32.7969C184.928 33.1562 184.99 33.4297 185.115 33.6172C185.24 33.8047 185.428 33.9453 185.678 34.0391C185.943 34.1172 186.279 34.1641 186.685 34.1797C187.092 34.1953 187.584 34.2031 188.162 34.2031V38C187.537 38 186.935 38 186.357 38C185.795 38 185.209 38 184.599 38C184.006 37.9844 183.381 37.9766 182.724 37.9766C182.068 37.9609 181.342 37.9531 180.545 37.9531C179.935 37.9531 179.365 37.9609 178.834 37.9766C178.318 37.9766 177.818 37.9766 177.334 37.9766C176.865 37.9766 176.404 37.9844 175.951 38C175.498 38 175.037 38 174.568 38V34.2031C175.287 34.2031 175.857 34.1875 176.279 34.1562C176.701 34.125 177.021 34.0547 177.24 33.9453C177.459 33.8203 177.599 33.6406 177.662 33.4062C177.724 33.1562 177.756 32.8203 177.756 32.3984V12.4062C177.756 12.1094 177.701 11.875 177.592 11.7031C177.482 11.5156 177.326 11.375 177.123 11.2812C176.935 11.1875 176.709 11.125 176.443 11.0938C176.178 11.0625 175.881 11.0469 175.553 11.0469H174.709V7.34375C175.537 7.35938 176.388 7.35938 177.263 7.34375C178.154 7.32812 179.021 7.32031 179.865 7.32031C180.678 7.32031 181.498 7.3125 182.326 7.29688C183.154 7.28125 184.013 7.25 184.904 7.20312V19.7188C185.998 18.5156 187.248 17.6328 188.654 17.0703C190.06 16.5078 191.623 16.2266 193.342 16.2266C194.763 16.2266 195.967 16.4375 196.951 16.8594C197.951 17.2656 198.756 17.8984 199.365 18.7578C199.99 19.6172 200.443 20.7188 200.724 22.0625C201.006 23.3906 201.146 24.9766 201.146 26.8203V32.1406C201.146 32.6094 201.178 32.9844 201.24 33.2656C201.303 33.5312 201.412 33.7344 201.568 33.875C201.74 34.0156 201.959 34.1094 202.224 34.1562C202.49 34.1875 202.826 34.2031 203.232 34.2031H204.053V38C203.553 38 203.068 38 202.599 38C202.131 38 201.646 38 201.146 38C200.646 37.9844 200.123 37.9766 199.576 37.9766C199.029 37.9609 198.428 37.9531 197.771 37.9531C197.099 37.9531 196.474 37.9609 195.896 37.9766C195.318 37.9766 194.763 37.9766 194.232 37.9766C193.701 37.9766 193.185 37.9844 192.685 38C192.185 38 191.678 38 191.162 38V34.2031C191.771 34.2031 192.256 34.1562 192.615 34.0625C192.99 33.9531 193.279 33.8047 193.482 33.6172C193.685 33.4297 193.818 33.2031 193.881 32.9375C193.943 32.6562 193.974 32.3516 193.974 32.0234V25.9297ZM213.972 16.0625C215.707 16.0625 217.355 16.3047 218.917 16.7891C220.48 17.2734 221.847 17.9922 223.019 18.9453C224.191 19.8984 225.121 21.0859 225.808 22.5078C226.496 23.9141 226.839 25.5391 226.839 27.3828C226.839 29.1797 226.503 30.7812 225.832 32.1875C225.16 33.5938 224.246 34.75 223.089 35.6562C221.933 36.5625 220.574 37.2734 219.011 37.7891C217.449 38.2891 215.769 38.5391 213.972 38.5391C212.16 38.5391 210.472 38.2891 208.91 37.7891C207.347 37.2891 205.98 36.5859 204.808 35.6797C203.652 34.7734 202.738 33.6172 202.066 32.2109C201.41 30.8047 201.082 29.1953 201.082 27.3828C201.082 25.6016 201.41 24.0078 202.066 22.6016C202.722 21.1953 203.628 20.0078 204.785 19.0391C205.941 18.0703 207.3 17.3359 208.863 16.8359C210.441 16.3203 212.144 16.0625 213.972 16.0625ZM213.996 19.9297C212.214 19.9297 210.839 20.5859 209.871 21.8984C208.902 23.2109 208.417 25.0312 208.417 27.3594C208.417 29.7031 208.894 31.5312 209.847 32.8438C210.8 34.1406 212.16 34.7891 213.925 34.7891C214.8 34.7891 215.582 34.6172 216.269 34.2734C216.957 33.9297 217.542 33.4375 218.027 32.7969C218.511 32.1562 218.878 31.3672 219.128 30.4297C219.378 29.4922 219.503 28.4375 219.503 27.2656C219.503 26.125 219.378 25.1016 219.128 24.1953C218.878 23.2891 218.519 22.5234 218.05 21.8984C217.582 21.2578 217.003 20.7734 216.316 20.4453C215.628 20.1016 214.855 19.9297 213.996 19.9297ZM242.947 26.0938C242.947 25.1875 242.884 24.3984 242.759 23.7266C242.65 23.0547 242.462 22.5 242.197 22.0625C241.931 21.6094 241.564 21.2734 241.095 21.0547C240.642 20.8203 240.079 20.7031 239.408 20.7031C238.439 20.7031 237.595 20.875 236.876 21.2188C236.158 21.5469 235.493 22.1094 234.884 22.9062C234.712 23.1719 234.572 23.6406 234.462 24.3125C234.353 24.9844 234.298 25.8359 234.298 26.8672V32.2812C234.298 32.75 234.353 33.1172 234.462 33.3828C234.572 33.6328 234.751 33.8203 235.001 33.9453C235.251 34.0547 235.579 34.125 235.986 34.1562C236.392 34.1875 236.892 34.2031 237.486 34.2031V38C236.908 38 236.353 38 235.822 38C235.29 38 234.743 38 234.181 38C233.618 37.9844 233.025 37.9766 232.4 37.9766C231.775 37.9609 231.087 37.9531 230.337 37.9531C229.697 37.9531 229.103 37.9609 228.556 37.9766C228.025 37.9766 227.509 37.9766 227.009 37.9766C226.525 37.9766 226.04 37.9844 225.556 38C225.087 38 224.611 38 224.126 38V34.2031C224.798 34.2031 225.329 34.1797 225.72 34.1328C226.126 34.0859 226.431 34 226.634 33.875C226.853 33.7344 226.993 33.5469 227.056 33.3125C227.118 33.0625 227.15 32.7422 227.15 32.3516V21.8047C227.15 21.1953 226.908 20.8203 226.423 20.6797C225.939 20.5391 225.212 20.4688 224.243 20.4688V16.7188C224.697 16.7188 225.126 16.7266 225.533 16.7422C225.954 16.7578 226.384 16.7656 226.822 16.7656C228.04 16.7656 229.236 16.7578 230.408 16.7422C231.579 16.7109 232.798 16.6797 234.064 16.6484V20.3516C234.47 19.7891 234.962 19.2656 235.54 18.7812C236.118 18.2812 236.775 17.8438 237.509 17.4688C238.259 17.0938 239.072 16.7969 239.947 16.5781C240.837 16.3594 241.79 16.25 242.806 16.25C244.462 16.25 245.868 16.6016 247.025 17.3047C248.181 18.0078 249.056 19.0703 249.65 20.4922C250.853 19.1484 252.197 18.1094 253.681 17.375C255.165 16.625 256.759 16.25 258.462 16.25C259.884 16.25 261.064 16.4766 262.001 16.9297C262.954 17.3672 263.72 18.0156 264.298 18.875C264.876 19.7188 265.283 20.7734 265.517 22.0391C265.767 23.2891 265.892 24.7344 265.892 26.375V32.7969C265.892 33.1406 265.939 33.4062 266.033 33.5938C266.142 33.7812 266.306 33.9219 266.525 34.0156C266.759 34.0938 267.056 34.1484 267.415 34.1797C267.79 34.1953 268.243 34.2031 268.775 34.2031V38C267.775 38 266.783 37.9922 265.798 37.9766C264.814 37.9609 263.704 37.9531 262.47 37.9531C261.251 37.9531 260.118 37.9609 259.072 37.9766C258.04 37.9922 256.986 38 255.908 38V34.2031C256.454 34.2031 256.908 34.1719 257.267 34.1094C257.642 34.0312 257.931 33.9141 258.134 33.7578C258.353 33.6016 258.501 33.3828 258.579 33.1016C258.673 32.8203 258.72 32.4688 258.72 32.0469V25.5781C258.72 23.9844 258.462 22.7734 257.947 21.9453C257.431 21.1172 256.493 20.7031 255.134 20.7031C254.056 20.7031 253.15 20.9219 252.415 21.3594C251.697 21.7812 251.087 22.3281 250.587 23C250.415 23.4844 250.29 24.0156 250.212 24.5938C250.15 25.1719 250.118 25.8047 250.118 26.4922V32.7031C250.118 33.0312 250.165 33.2969 250.259 33.5C250.353 33.6875 250.501 33.8359 250.704 33.9453C250.923 34.0547 251.212 34.125 251.572 34.1562C251.931 34.1875 252.376 34.2031 252.908 34.2031V38C252.392 38 251.884 38 251.384 38C250.9 38 250.4 38 249.884 38C249.368 37.9844 248.822 37.9766 248.243 37.9766C247.665 37.9609 247.025 37.9531 246.322 37.9531C245.712 37.9531 245.142 37.9609 244.611 37.9766C244.079 37.9766 243.572 37.9766 243.087 37.9766C242.618 37.9766 242.15 37.9844 241.681 38C241.228 38 240.767 38 240.298 38V34.2031C241.329 34.1875 242.025 34.0156 242.384 33.6875C242.759 33.3594 242.947 32.8672 242.947 32.2109V26.0938ZM289.265 28.2734H273.327C273.343 30.5078 273.89 32.1562 274.968 33.2188C276.046 34.2656 277.523 34.7891 279.398 34.7891C280.726 34.7891 281.843 34.4844 282.749 33.875C283.671 33.2656 284.327 32.5312 284.718 31.6719L290.062 32.0938C289.437 34.2344 288.148 35.8438 286.194 36.9219C284.257 38 281.812 38.5391 278.858 38.5391C276.702 38.5391 274.827 38.2578 273.233 37.6953C271.64 37.1328 270.312 36.375 269.249 35.4219C268.187 34.4688 267.39 33.3047 266.858 31.9297C266.343 30.5547 266.085 29.0547 266.085 27.4297C266.085 25.6953 266.374 24.125 266.952 22.7188C267.546 21.3125 268.382 20.1172 269.46 19.1328C270.538 18.1484 271.835 17.3906 273.351 16.8594C274.866 16.3281 276.554 16.0625 278.413 16.0625C280.21 16.0625 281.851 16.3203 283.335 16.8359C284.819 17.3359 286.093 18.0938 287.155 19.1094C288.218 20.1094 289.046 21.3594 289.64 22.8594C290.233 24.3594 290.53 26.1016 290.53 28.0859L289.265 28.2734ZM283.827 25.2266V25.0625C283.827 25.0156 283.819 24.9688 283.804 24.9219C283.804 24.8594 283.804 24.7969 283.804 24.7344C283.663 23.0781 283.148 21.7969 282.257 20.8906C281.366 19.9688 280.194 19.5078 278.741 19.5078C277.132 19.5078 275.866 20.0156 274.944 21.0312C274.038 22.0469 273.523 23.4375 273.398 25.2031H283.827V25.2266ZM307.645 23.1641H303.942C303.692 22.0234 303.098 21.1172 302.161 20.4453C301.239 19.7734 300.013 19.4141 298.481 19.3672C297.856 19.3672 297.317 19.4297 296.864 19.5547C296.427 19.6797 296.067 19.8516 295.786 20.0703C295.505 20.2734 295.294 20.5156 295.153 20.7969C295.028 21.0625 294.966 21.3438 294.966 21.6406C294.966 22.0156 295.083 22.3438 295.317 22.625C295.552 22.8906 295.888 23.1406 296.325 23.375C296.763 23.6094 297.294 23.8359 297.919 24.0547C298.559 24.2578 299.286 24.4766 300.098 24.7109C301.473 25.0859 302.684 25.4844 303.731 25.9062C304.794 26.3125 305.684 26.7891 306.403 27.3359C307.138 27.8828 307.692 28.5234 308.067 29.2578C308.442 29.9766 308.63 30.8516 308.63 31.8828C308.63 33.0547 308.38 34.0625 307.88 34.9062C307.38 35.7344 306.716 36.4219 305.888 36.9688C305.075 37.5156 304.145 37.9141 303.098 38.1641C302.052 38.4141 300.973 38.5391 299.864 38.5391C298.27 38.5391 296.934 38.3438 295.856 37.9531C294.794 37.5469 293.919 36.9375 293.231 36.125L293.138 37.9766C292.403 37.9766 291.684 37.9531 290.981 37.9062C290.294 37.8594 289.591 37.8359 288.872 37.8359V31.1797H293.114C293.177 31.8828 293.364 32.5 293.677 33.0312C294.005 33.5625 294.419 34.0078 294.919 34.3672C295.419 34.7109 295.989 34.9688 296.63 35.1406C297.27 35.3125 297.95 35.3984 298.669 35.3984C299.763 35.3984 300.661 35.1953 301.364 34.7891C302.067 34.3828 302.419 33.8281 302.419 33.125C302.419 32.6562 302.223 32.2578 301.833 31.9297C301.458 31.5859 300.95 31.2734 300.309 30.9922C299.684 30.7109 298.958 30.4375 298.13 30.1719C297.317 29.9062 296.473 29.6172 295.598 29.3047C294.552 28.9297 293.606 28.5469 292.763 28.1562C291.934 27.7656 291.223 27.3203 290.63 26.8203C290.052 26.3203 289.606 25.7344 289.294 25.0625C288.981 24.3906 288.825 23.5859 288.825 22.6484C288.825 21.6797 289.005 20.8047 289.364 20.0234C289.739 19.2266 290.278 18.5547 290.981 18.0078C291.684 17.4453 292.552 17.0156 293.583 16.7188C294.614 16.4062 295.786 16.25 297.098 16.25C298.473 16.25 299.755 16.4297 300.942 16.7891C302.13 17.1328 303.067 17.6562 303.755 18.3594C303.77 18.2656 303.794 18.125 303.825 17.9375C303.872 17.7344 303.919 17.5312 303.966 17.3281C304.028 17.0938 304.083 16.8359 304.13 16.5547C304.598 16.6016 305.052 16.6484 305.489 16.6953C305.864 16.7266 306.247 16.7578 306.638 16.7891C307.044 16.8203 307.38 16.8516 307.645 16.8828V23.1641Z" fill="black"/>
</g>
</svg>
