<svg width="228" height="35" viewBox="0 0 228 35" fill="none" xmlns="http://www.w3.org/2000/svg">
<g filter="url(#filter0_i_1_45)">
<path d="M29.2294 12.0991L16.4449 2.46638C16.4021 2.43463 16.3506 2.40738 16.2927 2.3865C15.4745 1.8465 14.3443 1.87163 13.555 2.46638L0.770355 12.098C-0.145998 12.7878 -0.261691 14.0121 0.51396 14.8278C1.00419 15.3438 1.81735 15.3372 2.44095 15.2278V25.582C2.44095 26.3636 3.16241 27 4.04988 27H11.7512C12.0981 27 12.3798 26.755 12.3798 26.4534V17.4232H17.6214V26.4534C17.6214 26.755 17.903 27 18.2497 27H25.9512C26.8387 27 27.5601 26.3636 27.5601 25.582V15.2278C28.186 15.3349 28.9968 15.3427 29.487 14.8278C30.2615 14.0122 30.1458 12.7867 29.2294 12.0991ZM28.518 14.1303C28.3887 14.2626 27.7185 14.1903 27.1832 13.9871C26.9884 13.9127 26.7621 13.9303 26.5873 14.0309C26.4101 14.1316 26.302 14.3043 26.302 14.4878V25.581C26.302 25.7604 26.1435 25.9058 25.9501 25.9058H18.8771V16.8756C18.8771 16.5738 18.5955 16.3289 18.2486 16.3289H11.7501C11.4031 16.3289 11.1216 16.5738 11.1216 16.8756V25.9058H4.04859C3.855 25.9058 3.69662 25.7604 3.69662 25.581V14.4877C3.69662 14.3029 3.58969 14.1303 3.41134 14.0297C3.23413 13.9302 3.00907 13.9148 2.81418 13.9869C2.33905 14.1696 1.61643 14.2723 1.48062 14.1292C1.13742 13.7683 1.18657 13.2283 1.59128 12.9233L14.3759 3.29075C14.7255 3.02838 15.2319 3.02838 15.5815 3.29075C15.6266 3.32575 15.6783 3.35412 15.7324 3.375L28.4064 12.9256C28.8122 13.2294 28.8611 13.7694 28.518 14.1303Z" fill="black"/>
<path d="M37.0859 13.7139C38.7559 13.7041 39.9863 13.6797 40.7773 13.6406V16.4531C41.1484 15.4473 41.7441 14.6855 42.5645 14.168C43.3945 13.6504 44.415 13.3916 45.626 13.3916C45.8506 13.3916 46.0752 13.4014 46.2998 13.4209C46.5342 13.4404 46.7686 13.4697 47.0029 13.5088V17.9326C46.915 17.9229 46.8027 17.918 46.666 17.918C46.5391 17.918 46.4316 17.918 46.3438 17.918C46.1875 17.918 46.0068 17.9229 45.8018 17.9326C45.6064 17.9326 45.4404 17.9375 45.3037 17.9473C45.1963 17.5371 45.0205 17.2441 44.7764 17.0684C44.542 16.8926 44.2148 16.8047 43.7949 16.8047C43.4238 16.8047 43.082 16.8779 42.7695 17.0244C42.457 17.1709 42.1787 17.3809 41.9346 17.6543C41.7002 17.918 41.5049 18.2451 41.3486 18.6357C41.2021 19.0166 41.1045 19.4414 41.0557 19.9102C41.0264 20.0078 41.002 20.2275 40.9824 20.5693C40.9629 20.9111 40.9482 21.2871 40.9385 21.6973C40.9287 22.0977 40.9238 22.4883 40.9238 22.8691C40.9238 23.2402 40.9238 23.5088 40.9238 23.6748C40.9238 23.9287 40.958 24.1191 41.0264 24.2461C41.1045 24.373 41.2314 24.4658 41.4072 24.5244C41.583 24.583 41.8125 24.6172 42.0957 24.627C42.3789 24.627 42.7256 24.627 43.1357 24.627V27C42.7451 27 42.3594 27 41.9785 27C41.6074 26.9902 41.2266 26.9854 40.8359 26.9854C40.4453 26.9854 40.0303 26.9854 39.5908 26.9854C39.1611 26.9756 38.6924 26.9707 38.1846 26.9707C37.7842 26.9707 37.418 26.9756 37.0859 26.9854C36.7637 26.9854 36.4561 26.9854 36.1631 26.9854C35.8799 26.9854 35.5967 26.9902 35.3135 27C35.04 27 34.7568 27 34.4639 27V24.627C34.874 24.627 35.1963 24.6172 35.4307 24.5977C35.6748 24.5781 35.8506 24.5293 35.958 24.4512C36.1533 24.4023 36.2803 24.2998 36.3389 24.1436C36.4072 23.9775 36.4414 23.709 36.4414 23.3379V16.8779C36.4414 16.6631 36.4023 16.502 36.3242 16.3945C36.2559 16.2773 36.1436 16.1943 35.9873 16.1455C35.8311 16.0967 35.6309 16.0674 35.3867 16.0576C35.1426 16.0479 34.8496 16.043 34.5078 16.043V13.6992C34.6738 13.6992 35.5332 13.7041 37.0859 13.7139ZM62.9404 20.9209H52.9795C52.9893 22.3174 53.3311 23.3477 54.0049 24.0117C54.6787 24.666 55.6016 24.9932 56.7734 24.9932C57.6035 24.9932 58.3018 24.8027 58.8682 24.4219C59.4443 24.041 59.8545 23.582 60.0986 23.0449L63.4385 23.3086C63.0479 24.6465 62.2422 25.6523 61.0215 26.3262C59.8105 27 58.2822 27.3369 56.4365 27.3369C55.0889 27.3369 53.917 27.1611 52.9209 26.8096C51.9248 26.458 51.0947 25.9844 50.4307 25.3887C49.7666 24.793 49.2686 24.0654 48.9365 23.2061C48.6143 22.3467 48.4531 21.4092 48.4531 20.3936C48.4531 19.3096 48.6338 18.3281 48.9951 17.4492C49.3662 16.5703 49.8887 15.8232 50.5625 15.208C51.2363 14.5928 52.0469 14.1191 52.9941 13.7871C53.9414 13.4551 54.9961 13.2891 56.1582 13.2891C57.2812 13.2891 58.3066 13.4502 59.2344 13.7725C60.1621 14.085 60.958 14.5586 61.6221 15.1934C62.2861 15.8184 62.8037 16.5996 63.1748 17.5371C63.5459 18.4746 63.7314 19.5635 63.7314 20.8037L62.9404 20.9209ZM59.542 19.0166V18.9141C59.542 18.8848 59.5371 18.8555 59.5273 18.8262C59.5273 18.7871 59.5273 18.748 59.5273 18.709C59.4395 17.6738 59.1172 16.873 58.5605 16.3066C58.0039 15.7305 57.2715 15.4424 56.3633 15.4424C55.3574 15.4424 54.5664 15.7598 53.9902 16.3945C53.4238 17.0293 53.1016 17.8984 53.0234 19.002H59.542V19.0166ZM80.2256 23.0156C80.2256 23.416 80.2354 23.7285 80.2549 23.9531C80.2842 24.1777 80.3379 24.3438 80.416 24.4512C80.5039 24.5488 80.6211 24.6074 80.7676 24.627C80.9141 24.6465 81.1143 24.6562 81.3682 24.6562H82.0713V27C81.9932 27 81.8223 27 81.5586 27C81.2949 27 81.0068 27 80.6943 27C80.3818 26.9902 80.0791 26.9854 79.7861 26.9854C79.5029 26.9854 79.3027 26.9854 79.1855 26.9854C78.9121 26.9854 78.6631 26.9902 78.4385 27C78.2139 27 77.9941 27 77.7793 27C77.5742 27.0098 77.3594 27.0146 77.1348 27.0146C76.9102 27.0244 76.6611 27.0342 76.3877 27.0439L75.9482 25.1396C75.7334 25.4814 75.4795 25.7891 75.1865 26.0625C74.8936 26.3262 74.542 26.5557 74.1318 26.751C73.7217 26.9365 73.248 27.0781 72.7109 27.1758C72.1738 27.2832 71.5586 27.3369 70.8652 27.3369C70.0254 27.3369 69.2832 27.2246 68.6387 27C68.0039 26.7852 67.4717 26.4922 67.042 26.1211C66.6221 25.75 66.3047 25.3154 66.0898 24.8174C65.875 24.3096 65.7676 23.7725 65.7676 23.2061C65.7676 22.5518 65.9092 21.9609 66.1924 21.4336C66.4854 20.9062 66.9004 20.4619 67.4375 20.1006C67.9844 19.7295 68.6436 19.4463 69.415 19.251C70.1865 19.0459 71.0605 18.9434 72.0371 18.9434C72.6719 18.9434 73.3066 18.9824 73.9414 19.0605C74.5762 19.1289 75.1768 19.2363 75.7432 19.3828V17.6982C75.7432 16.9561 75.4844 16.3652 74.9668 15.9258C74.459 15.4863 73.668 15.2666 72.5938 15.2666C70.8164 15.2666 69.7568 15.9746 69.415 17.3906L66.998 17.1709L67.0859 14.2412C67.2324 14.1729 67.4717 14.085 67.8037 13.9775C68.1357 13.8701 68.5557 13.7676 69.0635 13.6699C69.5713 13.5625 70.1572 13.4746 70.8213 13.4062C71.4854 13.3281 72.2227 13.2891 73.0332 13.2891C74.3027 13.2891 75.3916 13.3818 76.2998 13.5674C77.208 13.7432 77.9502 14.0264 78.5264 14.417C79.1123 14.8076 79.542 15.3154 79.8154 15.9404C80.0889 16.5557 80.2256 17.3076 80.2256 18.1963V23.0156ZM73.3115 20.4668C72.2861 20.4668 71.4902 20.6768 70.9238 21.0967C70.3574 21.5166 70.0742 22.1074 70.0742 22.8691C70.0742 23.2305 70.1377 23.5234 70.2646 23.748C70.3916 23.9629 70.5625 24.1729 70.7773 24.3779C71.002 24.5732 71.2656 24.7246 71.5684 24.832C71.8809 24.9395 72.2129 24.9932 72.5645 24.9932C73.043 24.9932 73.4775 24.9297 73.8682 24.8027C74.2588 24.6758 74.5908 24.4902 74.8643 24.2461C75.1475 23.9922 75.3623 23.7188 75.5088 23.4258C75.665 23.1328 75.7432 22.7568 75.7432 22.2979V20.7891C75.333 20.6719 74.9277 20.5889 74.5273 20.54C74.127 20.4912 73.7217 20.4668 73.3115 20.4668ZM89.4834 23.1182C89.4834 23.4307 89.5078 23.6846 89.5566 23.8799C89.6055 24.0752 89.6934 24.2266 89.8203 24.334C89.957 24.4414 90.1377 24.5195 90.3623 24.5684C90.5967 24.6074 90.8945 24.627 91.2559 24.627V27C90.9238 27 90.5967 27 90.2744 27C89.9521 27 89.6201 27 89.2783 27C88.9463 26.9902 88.5947 26.9854 88.2236 26.9854C87.8525 26.9756 87.457 26.9707 87.0371 26.9707C86.2559 26.9707 85.5674 26.9756 84.9717 26.9854C84.376 26.9951 83.7754 27 83.1699 27V24.627C83.6289 24.627 83.9805 24.5977 84.2246 24.5391C84.4785 24.4805 84.6641 24.3828 84.7812 24.2461C84.8984 24.0996 84.9668 23.9092 84.9863 23.6748C85.0059 23.4404 85.0156 23.1475 85.0156 22.7959V11.209C85.0156 10.9746 84.9766 10.7891 84.8984 10.6523C84.8301 10.5156 84.7178 10.4131 84.5615 10.3447C84.415 10.2764 84.2295 10.2324 84.0049 10.2129C83.79 10.1934 83.5361 10.1836 83.2432 10.1836V7.83984C83.3994 7.83984 83.6387 7.83984 83.9609 7.83984C84.2832 7.83984 84.6201 7.83984 84.9717 7.83984C85.3232 7.83008 85.6455 7.8252 85.9385 7.8252C86.2314 7.81543 86.4268 7.81055 86.5244 7.81055C87.0127 7.81055 87.4961 7.80566 87.9746 7.7959C88.4531 7.78613 88.9561 7.77148 89.4834 7.75195V23.1182Z" fill="black"/>
<path d="M102.887 18.3281V22.21H93.2041V18.3281H102.887Z" fill="#060C8C"/>
<path d="M116.803 19.4561C116.803 18.958 116.773 18.4941 116.715 18.0645C116.656 17.625 116.544 17.249 116.378 16.9365C116.212 16.6143 115.978 16.3652 115.675 16.1895C115.372 16.0039 114.981 15.9111 114.503 15.9111C113.966 15.9111 113.502 15.9893 113.111 16.1455C112.721 16.3018 112.389 16.5166 112.115 16.79C111.852 17.0537 111.642 17.3662 111.485 17.7275C111.329 18.0791 111.217 18.4551 111.148 18.8555V23.748C111.148 23.9727 111.188 24.1436 111.266 24.2607C111.344 24.3779 111.461 24.4658 111.617 24.5244C111.783 24.5732 111.993 24.6025 112.247 24.6123C112.501 24.6221 112.809 24.627 113.17 24.627V27C112.779 27 112.403 27 112.042 27C111.69 27 111.324 27 110.943 27C110.572 26.9902 110.182 26.9854 109.771 26.9854C109.361 26.9756 108.907 26.9707 108.409 26.9707C108.028 26.9707 107.672 26.9756 107.34 26.9854C107.018 26.9854 106.705 26.9854 106.402 26.9854C106.109 26.9854 105.821 26.9902 105.538 27C105.255 27 104.967 27 104.674 27V24.627C105.123 24.627 105.479 24.6172 105.743 24.5977C106.007 24.5781 106.207 24.5342 106.344 24.4658C106.48 24.3877 106.568 24.2754 106.607 24.1289C106.646 23.9727 106.666 23.7627 106.666 23.499V11.0039C106.666 10.8184 106.632 10.6719 106.563 10.5645C106.495 10.4473 106.397 10.3594 106.271 10.3008C106.153 10.2422 106.012 10.2031 105.846 10.1836C105.68 10.1641 105.494 10.1543 105.289 10.1543H104.762V7.83984C105.279 7.84961 105.812 7.84961 106.358 7.83984C106.915 7.83008 107.457 7.8252 107.984 7.8252C108.492 7.8252 109.005 7.82031 109.522 7.81055C110.04 7.80078 110.577 7.78125 111.134 7.75195V15.5742C111.817 14.8223 112.599 14.2705 113.478 13.9189C114.356 13.5674 115.333 13.3916 116.407 13.3916C117.296 13.3916 118.048 13.5234 118.663 13.7871C119.288 14.041 119.791 14.4365 120.172 14.9736C120.562 15.5107 120.846 16.1992 121.021 17.0391C121.197 17.8691 121.285 18.8604 121.285 20.0127V23.3379C121.285 23.6309 121.305 23.8652 121.344 24.041C121.383 24.207 121.451 24.334 121.549 24.4219C121.656 24.5098 121.793 24.5684 121.959 24.5977C122.125 24.6172 122.335 24.627 122.589 24.627H123.102V27C122.789 27 122.486 27 122.193 27C121.9 27 121.598 27 121.285 27C120.973 26.9902 120.646 26.9854 120.304 26.9854C119.962 26.9756 119.586 26.9707 119.176 26.9707C118.756 26.9707 118.365 26.9756 118.004 26.9854C117.643 26.9854 117.296 26.9854 116.964 26.9854C116.632 26.9854 116.31 26.9902 115.997 27C115.685 27 115.367 27 115.045 27V24.627C115.426 24.627 115.729 24.5977 115.953 24.5391C116.188 24.4707 116.368 24.3779 116.495 24.2607C116.622 24.1436 116.705 24.002 116.744 23.8359C116.783 23.6602 116.803 23.4697 116.803 23.2646V19.4561ZM132.901 13.2891C133.985 13.2891 135.016 13.4404 135.992 13.7432C136.969 14.0459 137.823 14.4951 138.556 15.0908C139.288 15.6865 139.869 16.4287 140.299 17.3174C140.729 18.1963 140.943 19.2119 140.943 20.3643C140.943 21.4873 140.733 22.4883 140.313 23.3672C139.894 24.2461 139.322 24.9688 138.6 25.5352C137.877 26.1016 137.027 26.5459 136.051 26.8682C135.074 27.1807 134.024 27.3369 132.901 27.3369C131.769 27.3369 130.714 27.1807 129.737 26.8682C128.761 26.5557 127.906 26.1162 127.174 25.5498C126.451 24.9834 125.88 24.2607 125.46 23.3818C125.05 22.5029 124.845 21.4971 124.845 20.3643C124.845 19.251 125.05 18.2549 125.46 17.376C125.87 16.4971 126.437 15.7549 127.159 15.1494C127.882 14.5439 128.731 14.085 129.708 13.7725C130.694 13.4502 131.759 13.2891 132.901 13.2891ZM132.916 15.7061C131.803 15.7061 130.943 16.1162 130.338 16.9365C129.732 17.7568 129.43 18.8945 129.43 20.3496C129.43 21.8145 129.728 22.957 130.323 23.7773C130.919 24.5879 131.769 24.9932 132.872 24.9932C133.419 24.9932 133.907 24.8857 134.337 24.6709C134.767 24.4561 135.133 24.1484 135.436 23.748C135.738 23.3477 135.968 22.8545 136.124 22.2686C136.28 21.6826 136.358 21.0234 136.358 20.291C136.358 19.5781 136.28 18.9385 136.124 18.3721C135.968 17.8057 135.743 17.3271 135.45 16.9365C135.157 16.5361 134.796 16.2334 134.366 16.0283C133.937 15.8135 133.453 15.7061 132.916 15.7061ZM154.61 19.5586C154.61 18.9922 154.571 18.499 154.493 18.0791C154.425 17.6592 154.308 17.3125 154.142 17.0391C153.976 16.7559 153.746 16.5459 153.453 16.4092C153.17 16.2627 152.818 16.1895 152.398 16.1895C151.793 16.1895 151.266 16.2969 150.816 16.5117C150.367 16.7168 149.952 17.0684 149.571 17.5664C149.464 17.7324 149.376 18.0254 149.308 18.4453C149.239 18.8652 149.205 19.3975 149.205 20.042V23.4258C149.205 23.7188 149.239 23.9482 149.308 24.1143C149.376 24.2705 149.488 24.3877 149.645 24.4658C149.801 24.5342 150.006 24.5781 150.26 24.5977C150.514 24.6172 150.826 24.627 151.197 24.627V27C150.836 27 150.489 27 150.157 27C149.825 27 149.483 27 149.132 27C148.78 26.9902 148.409 26.9854 148.019 26.9854C147.628 26.9756 147.198 26.9707 146.729 26.9707C146.329 26.9707 145.958 26.9756 145.616 26.9854C145.284 26.9854 144.962 26.9854 144.649 26.9854C144.347 26.9854 144.044 26.9902 143.741 27C143.448 27 143.15 27 142.848 27V24.627C143.268 24.627 143.6 24.6123 143.844 24.583C144.098 24.5537 144.288 24.5 144.415 24.4219C144.552 24.334 144.64 24.2168 144.679 24.0703C144.718 23.9141 144.737 23.7139 144.737 23.4697V16.8779C144.737 16.4971 144.586 16.2627 144.283 16.1748C143.98 16.0869 143.526 16.043 142.921 16.043V13.6992C143.204 13.6992 143.473 13.7041 143.727 13.7139C143.99 13.7236 144.259 13.7285 144.532 13.7285C145.294 13.7285 146.041 13.7236 146.773 13.7139C147.506 13.6943 148.268 13.6748 149.059 13.6553V15.9697C149.312 15.6182 149.62 15.291 149.981 14.9883C150.343 14.6758 150.753 14.4023 151.212 14.168C151.681 13.9336 152.188 13.748 152.735 13.6113C153.292 13.4746 153.888 13.4062 154.522 13.4062C155.558 13.4062 156.437 13.626 157.159 14.0654C157.882 14.5049 158.429 15.1689 158.8 16.0576C159.552 15.2178 160.392 14.5684 161.319 14.1094C162.247 13.6406 163.243 13.4062 164.308 13.4062C165.196 13.4062 165.934 13.5479 166.52 13.8311C167.115 14.1045 167.594 14.5098 167.955 15.0469C168.316 15.5742 168.57 16.2334 168.717 17.0244C168.873 17.8057 168.951 18.709 168.951 19.7344V23.748C168.951 23.9629 168.98 24.1289 169.039 24.2461C169.107 24.3633 169.21 24.4512 169.347 24.5098C169.493 24.5586 169.679 24.5928 169.903 24.6123C170.138 24.6221 170.421 24.627 170.753 24.627V27C170.128 27 169.508 26.9951 168.893 26.9854C168.277 26.9756 167.584 26.9707 166.812 26.9707C166.051 26.9707 165.343 26.9756 164.688 26.9854C164.044 26.9951 163.385 27 162.711 27V24.627C163.053 24.627 163.336 24.6074 163.561 24.5684C163.795 24.5195 163.976 24.4463 164.103 24.3486C164.239 24.251 164.332 24.1143 164.381 23.9385C164.439 23.7627 164.469 23.543 164.469 23.2793V19.2363C164.469 18.2402 164.308 17.4834 163.985 16.9658C163.663 16.4482 163.077 16.1895 162.228 16.1895C161.554 16.1895 160.987 16.3262 160.528 16.5996C160.079 16.8633 159.698 17.2051 159.386 17.625C159.278 17.9277 159.2 18.2598 159.151 18.6211C159.112 18.9824 159.093 19.3779 159.093 19.8076V23.6895C159.093 23.8945 159.122 24.0605 159.181 24.1875C159.239 24.3047 159.332 24.3975 159.459 24.4658C159.596 24.5342 159.776 24.5781 160.001 24.5977C160.226 24.6172 160.504 24.627 160.836 24.627V27C160.514 27 160.196 27 159.884 27C159.581 27 159.269 27 158.946 27C158.624 26.9902 158.282 26.9854 157.921 26.9854C157.56 26.9756 157.159 26.9707 156.72 26.9707C156.339 26.9707 155.982 26.9756 155.65 26.9854C155.318 26.9854 155.001 26.9854 154.698 26.9854C154.405 26.9854 154.112 26.9902 153.819 27C153.536 27 153.248 27 152.955 27V24.627C153.6 24.6172 154.034 24.5098 154.259 24.3047C154.493 24.0996 154.61 23.792 154.61 23.3818V19.5586ZM187.159 20.9209H177.198C177.208 22.3174 177.55 23.3477 178.224 24.0117C178.897 24.666 179.82 24.9932 180.992 24.9932C181.822 24.9932 182.521 24.8027 183.087 24.4219C183.663 24.041 184.073 23.582 184.317 23.0449L187.657 23.3086C187.267 24.6465 186.461 25.6523 185.24 26.3262C184.029 27 182.501 27.3369 180.655 27.3369C179.308 27.3369 178.136 27.1611 177.14 26.8096C176.144 26.458 175.313 25.9844 174.649 25.3887C173.985 24.793 173.487 24.0654 173.155 23.2061C172.833 22.3467 172.672 21.4092 172.672 20.3936C172.672 19.3096 172.853 18.3281 173.214 17.4492C173.585 16.5703 174.107 15.8232 174.781 15.208C175.455 14.5928 176.266 14.1191 177.213 13.7871C178.16 13.4551 179.215 13.2891 180.377 13.2891C181.5 13.2891 182.525 13.4502 183.453 13.7725C184.381 14.085 185.177 14.5586 185.841 15.1934C186.505 15.8184 187.022 16.5996 187.394 17.5371C187.765 18.4746 187.95 19.5635 187.95 20.8037L187.159 20.9209ZM183.761 19.0166V18.9141C183.761 18.8848 183.756 18.8555 183.746 18.8262C183.746 18.7871 183.746 18.748 183.746 18.709C183.658 17.6738 183.336 16.873 182.779 16.3066C182.223 15.7305 181.49 15.4424 180.582 15.4424C179.576 15.4424 178.785 15.7598 178.209 16.3945C177.643 17.0293 177.32 17.8984 177.242 19.002H183.761V19.0166ZM202.247 17.7275H199.933C199.776 17.0146 199.405 16.4482 198.819 16.0283C198.243 15.6084 197.477 15.3838 196.52 15.3545C196.129 15.3545 195.792 15.3936 195.509 15.4717C195.235 15.5498 195.011 15.6572 194.835 15.7939C194.659 15.9209 194.527 16.0723 194.439 16.248C194.361 16.4141 194.322 16.5898 194.322 16.7754C194.322 17.0098 194.396 17.2148 194.542 17.3906C194.688 17.5566 194.898 17.7129 195.172 17.8594C195.445 18.0059 195.777 18.1475 196.168 18.2842C196.568 18.4111 197.022 18.5479 197.53 18.6943C198.39 18.9287 199.146 19.1777 199.801 19.4414C200.465 19.6953 201.021 19.9932 201.471 20.335C201.93 20.6768 202.276 21.0771 202.511 21.5361C202.745 21.9854 202.862 22.5322 202.862 23.1768C202.862 23.9092 202.706 24.5391 202.394 25.0664C202.081 25.584 201.666 26.0137 201.148 26.3555C200.641 26.6973 200.06 26.9463 199.405 27.1025C198.751 27.2588 198.077 27.3369 197.384 27.3369C196.388 27.3369 195.553 27.2148 194.879 26.9707C194.215 26.7168 193.668 26.3359 193.238 25.8281L193.18 26.9854C192.721 26.9854 192.271 26.9707 191.832 26.9414C191.402 26.9121 190.963 26.8975 190.514 26.8975V22.7373H193.165C193.204 23.1768 193.321 23.5625 193.517 23.8945C193.722 24.2266 193.98 24.5049 194.293 24.7295C194.605 24.9443 194.962 25.1055 195.362 25.2129C195.763 25.3203 196.188 25.374 196.637 25.374C197.32 25.374 197.882 25.2471 198.321 24.9932C198.761 24.7393 198.98 24.3926 198.98 23.9531C198.98 23.6602 198.858 23.4111 198.614 23.2061C198.38 22.9912 198.062 22.7959 197.662 22.6201C197.271 22.4443 196.817 22.2734 196.3 22.1074C195.792 21.9414 195.265 21.7607 194.718 21.5654C194.063 21.3311 193.473 21.0918 192.945 20.8477C192.428 20.6035 191.983 20.3252 191.612 20.0127C191.251 19.7002 190.973 19.334 190.777 18.9141C190.582 18.4941 190.484 17.9912 190.484 17.4053C190.484 16.7998 190.597 16.2529 190.821 15.7646C191.056 15.2666 191.393 14.8467 191.832 14.5049C192.271 14.1533 192.813 13.8848 193.458 13.6992C194.103 13.5039 194.835 13.4062 195.655 13.4062C196.515 13.4062 197.315 13.5186 198.058 13.7432C198.8 13.958 199.386 14.2852 199.815 14.7246C199.825 14.666 199.84 14.5781 199.859 14.4609C199.889 14.334 199.918 14.207 199.947 14.0801C199.986 13.9336 200.021 13.7725 200.05 13.5967C200.343 13.626 200.626 13.6553 200.899 13.6846C201.134 13.7041 201.373 13.7236 201.617 13.7432C201.871 13.7627 202.081 13.7822 202.247 13.8018V17.7275Z" fill="#080D84"/>
</g>
<defs>
<filter id="filter0_i_1_45" x="0" y="2" width="202.862" height="29.3369" filterUnits="userSpaceOnUse" color-interpolation-filters="sRGB">
<feFlood flood-opacity="0" result="BackgroundImageFix"/>
<feBlend mode="normal" in="SourceGraphic" in2="BackgroundImageFix" result="shape"/>
<feColorMatrix in="SourceAlpha" type="matrix" values="0 0 0 0 0 0 0 0 0 0 0 0 0 0 0 0 0 0 127 0" result="hardAlpha"/>
<feOffset dy="4"/>
<feGaussianBlur stdDeviation="2"/>
<feComposite in2="hardAlpha" operator="arithmetic" k2="-1" k3="1"/>
<feColorMatrix type="matrix" values="0 0 0 0 0 0 0 0 0 0 0 0 0 0 0 0 0 0 0.25 0"/>
<feBlend mode="normal" in2="shape" result="effect1_innerShadow_1_45"/>
</filter>
</defs>
</svg>
